<?xml version="1.0" encoding="iso-8859-1"?>
<!-- Generator: Adobe Illustrator 18.0.0, SVG Export Plug-In . SVG Version: 6.00 Build 0)  -->
<!DOCTYPE svg PUBLIC "-//W3C//DTD SVG 1.1//EN" "http://www.w3.org/Graphics/SVG/1.1/DTD/svg11.dtd">
<svg xmlns="http://www.w3.org/2000/svg" xmlns:xlink="http://www.w3.org/1999/xlink" version="1.1" id="Capa_1" x="0px" y="0px" viewBox="0 0 475.264 475.264" style="enable-background:new 0 0 475.264 475.264;" xml:space="preserve" width="512px" height="512px">
<path d="M463.716,170.835c0-2.679-1.429-5.155-3.75-6.495L177.107,1.005c-2.32-1.34-5.18-1.34-7.5,0L66.727,60.403l0.004,0.007  c-1.667,0.963-2.919,2.532-3.46,4.408l-51.43,178.157c-0.195,0.676-0.294,1.376-0.294,2.08v59.386c0,2.68,1.43,5.155,3.75,6.495  l282.882,163.322c1.16,0.67,2.455,1.005,3.75,1.005c1.295,0,2.59-0.335,3.75-1.005l0,0l0,0c0,0,0.001,0,0.001,0c0,0,0,0,0.001,0  l154.285-89.08c2.32-1.34,3.75-3.816,3.75-6.495V170.835L463.716,170.835z M31.409,243.533l123.345-119.317l189.77,109.564  l-47.163,163.3L31.409,243.533z M152.457,105.569l-66.98-38.671l80.38-46.408v72.116L152.457,105.569z M174.505,105.11  l190.276,109.855l-11.423,6.595L165.967,113.369L174.505,105.11z M359.725,235.205l20.056-11.579l64.074,36.993L316.922,383.406  L359.725,235.205z M394.781,214.965l53.935-31.139v62.279L394.781,214.965z M379.781,206.305L180.857,91.456V20.491l260.36,150.344  L379.781,206.305z M75.025,78.185l66.219,38.231L34.057,220.101L75.025,78.185z M26.547,300.112v-42.066l267.862,154.65  l0.015,42.074L26.547,300.112z M309.424,454.776l-0.016-43.231l139.308-134.759v97.568L309.424,454.776z" fill="#79a741"/>
<g>
</g>
<g>
</g>
<g>
</g>
<g>
</g>
<g>
</g>
<g>
</g>
<g>
</g>
<g>
</g>
<g>
</g>
<g>
</g>
<g>
</g>
<g>
</g>
<g>
</g>
<g>
</g>
<g>
</g>
</svg>
