<?xml version="1.0" encoding="iso-8859-1"?>
<!-- Generator: Adobe Illustrator 19.1.0, SVG Export Plug-In . SVG Version: 6.00 Build 0)  -->
<svg xmlns="http://www.w3.org/2000/svg" xmlns:xlink="http://www.w3.org/1999/xlink" version="1.1" id="Capa_1" x="0px" y="0px" viewBox="0 0 504.073 504.073" style="enable-background:new 0 0 504.073 504.073;" xml:space="preserve" width="512px" height="512px">
<g>
	<g>
		<path d="M477.069,180.026c14.888,0,27.004-12.116,27.004-27.003V45.007c0-14.888-12.116-27.004-27.004-27.004H27.004    C12.116,18.003,0,30.119,0,45.007v108.015c0,14.888,12.116,27.004,27.004,27.004h27.004v18.003H27.004    C12.116,198.029,0,210.145,0,225.033v108.015c0,14.888,12.116,27.004,27.004,27.004h207.03v36.006h-63.009    c-4.968,0-9.001,4.032-9.001,9.001v27.003H9.001v18.003h153.023v27.004c0,4.968,4.032,9.001,9.001,9.001h144.021    c4.968,0,9.001-4.032,9.001-9.001v-27.004h171.025v-18.003H324.047v-27.003c0-4.968-4.032-9.001-9.001-9.001h-63.009v-36.006    h225.032c14.888,0,27.004-12.116,27.004-27.003V225.033c0-14.888-12.116-27.004-27.004-27.004h-27.004v-18.003H477.069z     M306.044,468.068H180.026V414.06h126.018V468.068z M18.003,153.022V45.006c0-4.95,4.032-9.001,9.001-9.001v0.001h450.065    c4.968,0,9.001,4.05,9.001,9.001v108.015c0,4.95-4.032,9.001-9.001,9.001H27.004C22.036,162.023,18.003,157.973,18.003,153.022z     M486.07,225.033v108.015c0,4.95-4.032,9.001-9.001,9.001H27.004c-4.968,0-9.001-4.05-9.001-9.001V225.032    c0-4.95,4.032-9.001,9.001-9.001v0.001h450.065C482.037,216.032,486.07,220.082,486.07,225.033z M432.062,198.029H72.011v-18.003    h360.051V198.029L432.062,198.029z" fill="#79a741"/>
		<rect x="126.018" y="54.008" width="216.031" height="18.003" fill="#79a741"/>
		<rect x="126.018" y="126.018" width="216.031" height="18.003" fill="#79a741"/>
		<rect x="126.018" y="90.013" width="216.031" height="18.003" fill="#79a741"/>
		<path d="M405.059,72.01c-14.889,0-27.004,12.116-27.004,27.004s12.116,27.004,27.004,27.004s27.004-12.116,27.004-27.004    S419.947,72.01,405.059,72.01z M405.059,108.015c-4.968,0-9.001-4.05-9.001-9.001c0-4.95,4.032-9.001,9.001-9.001    c4.968,0,9.001,4.051,9.001,9.001S410.028,108.015,405.059,108.015z" fill="#79a741"/>
		<rect x="126.018" y="234.034" width="216.031" height="18.003" fill="#79a741"/>
		<rect x="126.018" y="306.044" width="216.031" height="18.003" fill="#79a741"/>
		<rect x="126.018" y="270.039" width="216.031" height="18.003" fill="#79a741"/>
		<path d="M405.059,306.044c14.888,0,27.003-12.116,27.004-27.004c0-14.888-12.116-27.004-27.004-27.004    s-27.004,12.116-27.004,27.004S390.171,306.044,405.059,306.044z M405.059,270.039c4.968,0,9.001,4.051,9.001,9.001    c0,4.95-4.032,9.001-9.001,9.001c-4.968,0-9.001-4.051-9.001-9.001C396.058,274.09,400.09,270.039,405.059,270.039z" fill="#79a741"/>
	</g>
</g>
<g>
</g>
<g>
</g>
<g>
</g>
<g>
</g>
<g>
</g>
<g>
</g>
<g>
</g>
<g>
</g>
<g>
</g>
<g>
</g>
<g>
</g>
<g>
</g>
<g>
</g>
<g>
</g>
<g>
</g>
</svg>
