<?xml version="1.0"?>
<svg xmlns="http://www.w3.org/2000/svg" height="512px" viewBox="0 0 512 512.00067" width="512px"><path d="m366.890625 0h-221.867187c-23.554688.0273438-42.640626 19.113281-42.667969 42.667969v426.664062c.027343 23.554688 19.113281 42.640625 42.667969 42.667969h221.867187c23.550781-.027344 42.636719-19.113281 42.664063-42.667969v-426.664062c-.027344-23.554688-19.113282-42.6406252-42.664063-42.667969zm-221.867187 17.066406h221.867187c14.136719 0 25.597656 11.460938 25.597656 25.601563v25.597656h-273.066406v-25.597656c0-14.140625 11.460937-25.601563 25.601563-25.601563zm247.464843 68.265625v341.335938h-273.066406v-341.335938zm-25.597656 409.601563h-221.867187c-14.140626 0-25.601563-11.460938-25.601563-25.601563v-25.597656h273.066406v25.597656c0 14.140625-11.460937 25.601563-25.597656 25.601563zm0 0" fill="#79a741"/><path d="m247.421875 460.800781h17.066406v17.066407h-17.066406zm0 0" fill="#79a741"/><path d="m153.554688 34.132812h17.066406v17.066407h-17.066406zm0 0" fill="#79a741"/><path d="m187.6875 34.132812h51.203125v17.066407h-51.203125zm0 0" fill="#79a741"/><path d="m165.441406 258.5 12.066406 12.066406 10.179688-10.179687v72.414062c0 9.425781 7.644531 17.066407 17.070312 17.066407h102.398438c9.425781 0 17.066406-7.640626 17.066406-17.066407v-72.414062l10.179688 10.179687 12.066406-12.066406-84.480469-84.480469c-3.382812-3.199219-8.679687-3.199219-12.066406 0zm141.714844 74.300781h-102.398438v-85.335937h102.398438zm-51.199219-140.679687 38.277344 38.277344h-76.558594zm0 0" fill="#79a741"/><path d="m424.121094 237.902344c-3.332032 3.332031-3.332032 8.730468 0 12.066406 3.332031 3.332031 3.332031 8.730469 0 12.066406-3.390625 3.273438-3.480469 8.675782-.207032 12.066406 3.273438 3.386719 8.675782 3.480469 12.066407.207032.070312-.070313.140625-.136719.207031-.207032 9.996094-10 9.996094-26.203124 0-36.199218-3.332031-3.332032-8.734375-3.332032-12.066406 0zm0 0" fill="#79a741"/><path d="m460.328125 213.769531c-3.390625-3.273437-8.792969-3.179687-12.066406.207031-3.191407 3.308594-3.191407 8.550782 0 11.859376 16.65625 16.660156 16.65625 43.667968 0 60.328124-3.390625 3.273438-3.480469 8.675782-.207031 12.066407 3.273437 3.390625 8.675781 3.484375 12.066406.210937.070312-.070312.140625-.140625.207031-.210937 23.328125-23.324219 23.332031-61.144531.003906-84.476563 0 0 0 0-.003906-.003906zm0 0" fill="#79a741"/><path d="m484.460938 189.628906c-3.390626-3.273437-8.792969-3.179687-12.066407.207032-3.191406 3.308593-3.191406 8.550781 0 11.859374 29.945313 30.011719 29.945313 78.597657 0 108.609376-3.390625 3.277343-3.480469 8.679687-.207031 12.066406 3.273438 3.390625 8.675781 3.484375 12.066406.210937.070313-.070312.140625-.140625.207032-.210937 36.597656-36.679688 36.597656-96.0625 0-132.742188zm0 0" fill="#79a741"/><path d="m87.789062 237.902344c-3.332031-3.332032-8.734374-3.332032-12.066406 0-9.992187 9.996094-9.992187 26.199218 0 36.195312 3.390625 3.277344 8.792969 3.183594 12.066406-.207031 3.195313-3.308594 3.195313-8.550781 0-11.855469-3.332031-3.332031-3.332031-8.734375 0-12.066406 2.085938-2.953125.519532-8.007812 0-12.066406zm0 0" fill="#79a741"/><path d="m63.648438 213.769531c-3.332032-3.332031-8.734376-3.332031-12.066407 0-23.328125 23.324219-23.328125 61.144531-.003906 84.476563 0 0 .003906 0 .003906.003906 3.273438 3.386719 8.675781 3.484375 12.066407.207031 3.390624-3.273437 3.484374-8.675781.210937-12.066406-.070313-.070313-.140625-.140625-.210937-.207031-16.65625-16.664063-16.65625-43.671875 0-60.332032 2.097656-2.957031.535156-8.019531 0-12.082031zm0 0" fill="#79a741"/><path d="m39.515625 201.695312c3.273437-3.390624 3.179687-8.792968-.210937-12.066406-3.304688-3.195312-8.546876-3.195312-11.855469 0-36.597657 36.679688-36.597657 96.0625 0 132.742188 3.273437 3.390625 8.675781 3.484375 12.066406.210937 3.390625-3.273437 3.484375-8.675781.210937-12.066406-.070312-.070313-.140624-.140625-.210937-.210937-29.945313-30.011719-29.945313-78.597657 0-108.609376zm0 0" fill="#79a741"/></svg>
