<?xml version="1.0" encoding="iso-8859-1"?>
<!-- Generator: Adobe Illustrator 19.0.0, SVG Export Plug-In . SVG Version: 6.00 Build 0)  -->
<svg version="1.1" id="Capa_1" xmlns="http://www.w3.org/2000/svg" xmlns:xlink="http://www.w3.org/1999/xlink" x="0px" y="0px"
	 viewBox="0 0 512 512" style="enable-background:new 0 0 512 512;" xml:space="preserve">
<path style="fill:#4398D1;" d="M76.8,76.8c-18.85,0-34.133,15.283-34.133,34.133v238.933h426.667V110.933
	c0-18.85-15.283-34.133-34.133-34.133H76.8z"/>
<rect x="42.667" y="332.8" style="fill:#3E8FC9;" width="426.667" height="17.067"/>
<g>
	<polygon style="fill:#F0E4D6;" points="329.958,494.933 298.667,401.067 213.333,401.067 182.042,494.933 145.067,494.933 
		145.067,512 366.933,512 366.933,494.933 	"/>
	<path style="fill:#F0E4D6;" d="M42.667,349.867v17.067c0,18.85,15.283,34.133,34.133,34.133h358.4
		c18.85,0,34.133-15.283,34.133-34.133v-17.067H42.667z"/>
</g>
<path style="fill:#87CED9;" d="M384,8.533H128c-9.429,0-17.067,7.637-17.067,17.067v324.267h290.133V25.6
	C401.067,16.171,393.429,8.533,384,8.533z"/>
<polygon style="fill:#7DC6D1;" points="401.067,84.267 135.467,349.867 401.067,349.867 "/>
<g>
	<path style="fill:#61ACC9;" d="M332.8,119.467c-23.561,0-42.667-19.106-42.667-42.667s19.106-42.667,42.667-42.667
		s42.667,19.106,42.667,42.667C375.441,100.352,356.352,119.441,332.8,119.467z M332.8,51.2c-14.14,0-25.6,11.46-25.6,25.6
		s11.46,25.6,25.6,25.6s25.6-11.46,25.6-25.6S346.94,51.2,332.8,51.2z"/>
	<rect x="324.267" y="68.267" style="fill:#61ACC9;" width="17.067" height="17.067"/>
	<path style="fill:#61ACC9;" d="M187.733,187.733c-23.561,0-42.667-19.106-42.667-42.667s19.106-42.667,42.667-42.667
		s42.667,19.106,42.667,42.667C230.374,168.619,211.285,187.708,187.733,187.733z M187.733,119.467c-14.14,0-25.6,11.46-25.6,25.6
		c0,14.14,11.46,25.6,25.6,25.6c14.14,0,25.6-11.46,25.6-25.6C213.333,130.927,201.873,119.467,187.733,119.467z"/>
	<rect x="179.2" y="136.533" style="fill:#61ACC9;" width="17.067" height="17.067"/>
	<rect x="187.733" y="102.4" style="fill:#61ACC9;" width="145.067" height="17.067"/>
	<path style="fill:#61ACC9;" d="M332.8,256c-23.561,0-42.667-19.106-42.667-42.667s19.106-42.667,42.667-42.667
		s42.667,19.106,42.667,42.667C375.441,236.885,356.352,255.974,332.8,256z M332.8,187.733c-14.14,0-25.6,11.46-25.6,25.6
		s11.46,25.6,25.6,25.6s25.6-11.46,25.6-25.6S346.94,187.733,332.8,187.733z"/>
	<rect x="324.267" y="204.8" style="fill:#61ACC9;" width="17.067" height="17.067"/>
	<rect x="187.733" y="170.667" style="fill:#61ACC9;" width="145.067" height="17.067"/>
	<path style="fill:#61ACC9;" d="M196.267,324.267c-23.561,0-42.667-19.106-42.667-42.667s19.106-42.667,42.667-42.667
		s42.667,19.106,42.667,42.667C238.908,305.152,219.819,324.241,196.267,324.267z M196.267,256c-14.14,0-25.6,11.46-25.6,25.6
		s11.46,25.6,25.6,25.6s25.6-11.46,25.6-25.6C221.867,267.46,210.406,256,196.267,256z"/>
	<rect x="187.733" y="273.067" style="fill:#61ACC9;" width="17.067" height="17.067"/>
	<rect x="196.267" y="238.933" style="fill:#61ACC9;" width="145.067" height="17.067"/>
</g>
<g>
	<rect x="136.533" y="34.133" style="fill:#3077A6;" width="17.067" height="17.067"/>
	<rect x="170.667" y="34.133" style="fill:#3077A6;" width="17.067" height="17.067"/>
	<rect x="204.8" y="34.133" style="fill:#3077A6;" width="17.067" height="17.067"/>
</g>
<polygon style="fill:#E0D2C1;" points="304.358,418.133 298.667,401.067 213.333,401.067 207.642,418.133 "/>
<rect x="110.933" y="332.8" style="fill:#7DC6D1;" width="290.133" height="17.067"/>
<path d="M435.2,409.6c23.552-0.026,42.641-19.115,42.667-42.667v-256c-0.026-23.552-19.115-42.641-42.667-42.667h-8.533v17.067
	h8.533c14.14,0,25.6,11.46,25.6,25.6v230.4H51.2v-230.4c0-14.14,11.46-25.6,25.6-25.6h8.533V68.267H76.8
	c-23.552,0.026-42.641,19.115-42.667,42.667v256c0.026,23.552,19.115,42.641,42.667,42.667h124.698l-28.442,85.333h-27.989V512
	h221.867v-17.067h-27.989L310.502,409.6H435.2z M51.2,366.933V358.4h409.6v8.533c0,14.14-11.46,25.6-25.6,25.6H76.8
	C62.66,392.533,51.2,381.073,51.2,366.933z M320.956,494.933H191.044l28.442-85.333h73.028L320.956,494.933z"/>
<path d="M409.6,324.267V25.6C409.6,11.46,398.14,0,384,0H128c-14.14,0-25.6,11.46-25.6,25.6v298.667h17.067V25.6
	c0-4.71,3.823-8.533,8.533-8.533h256c4.71,0,8.533,3.823,8.533,8.533v298.667H409.6z"/>
<path d="M375.467,76.8c0-23.561-19.106-42.667-42.667-42.667S290.133,53.239,290.133,76.8c0.034,9.259,3.106,18.261,8.755,25.6
	H187.733c-23.561,0-42.667,19.106-42.667,42.667s19.106,42.667,42.667,42.667h111.155c-11.674,15.07-11.674,36.13,0,51.2H196.267
	c-23.561,0-42.667,19.106-42.667,42.667c0,23.561,19.106,42.667,42.667,42.667s42.667-19.106,42.667-42.667
	c-0.034-9.259-3.106-18.261-8.755-25.6h111.155v-0.853c23.091-4.693,38.016-27.213,33.323-50.304
	c-4.045-19.9-21.547-34.193-41.856-34.176H221.645c11.674-15.07,11.674-36.13,0-51.2H332.8
	C356.352,119.441,375.441,100.352,375.467,76.8z M307.2,76.8c0-14.14,11.46-25.6,25.6-25.6s25.6,11.46,25.6,25.6
	s-11.46,25.6-25.6,25.6S307.2,90.94,307.2,76.8z M221.867,281.6c0,14.14-11.46,25.6-25.6,25.6s-25.6-11.46-25.6-25.6
	c0-14.14,11.46-25.6,25.6-25.6S221.867,267.46,221.867,281.6z M358.4,213.333c0,14.14-11.46,25.6-25.6,25.6s-25.6-11.46-25.6-25.6
	s11.46-25.6,25.6-25.6S358.4,199.194,358.4,213.333z M213.333,145.067c0,14.14-11.46,25.6-25.6,25.6c-14.14,0-25.6-11.46-25.6-25.6
	c0-14.14,11.46-25.6,25.6-25.6C201.873,119.467,213.333,130.927,213.333,145.067z"/>
<rect x="324.267" y="68.267" width="17.067" height="17.067"/>
<rect x="179.2" y="136.533" width="17.067" height="17.067"/>
<rect x="324.267" y="204.8" width="17.067" height="17.067"/>
<rect x="187.733" y="273.067" width="17.067" height="17.067"/>
<rect x="136.533" y="34.133" width="17.067" height="17.067"/>
<rect x="170.667" y="34.133" width="17.067" height="17.067"/>
<rect x="204.8" y="34.133" width="17.067" height="17.067"/>
<g>
</g>
<g>
</g>
<g>
</g>
<g>
</g>
<g>
</g>
<g>
</g>
<g>
</g>
<g>
</g>
<g>
</g>
<g>
</g>
<g>
</g>
<g>
</g>
<g>
</g>
<g>
</g>
<g>
</g>
</svg>
