<?xml version="1.0" encoding="iso-8859-1"?>
<!-- Generator: Adobe Illustrator 21.0.0, SVG Export Plug-In . SVG Version: 6.00 Build 0)  -->
<svg version="1.1" id="Capa_1" xmlns="http://www.w3.org/2000/svg" xmlns:xlink="http://www.w3.org/1999/xlink" x="0px" y="0px"
	 viewBox="0 0 512 512" style="enable-background:new 0 0 512 512;" xml:space="preserve">
<g>
	<g>
		<path style="fill:#3D324C;" d="M441.379,388.414h-79.448v-26.483c0-4.875-3.952-8.828-8.828-8.828s-8.828,3.952-8.828,8.828
			v26.483H176.552v-26.483c0-4.875-3.952-8.828-8.828-8.828s-8.828,3.952-8.828,8.828v26.483H79.448
			c-9.751,0-17.655,7.905-17.655,17.655v35.31c0,4.875,3.952,8.828,8.828,8.828s8.828-3.952,8.828-8.828v-35.31h167.724v35.31
			c0,4.875,3.952,8.828,8.828,8.828s8.828-3.952,8.828-8.828v-35.31h176.552v35.31c0,4.875,3.952,8.828,8.828,8.828
			c4.875,0,8.828-3.952,8.828-8.828v-35.31C459.034,396.318,451.13,388.414,441.379,388.414z"/>
		<path style="fill:#3D324C;" d="M256,158.897c4.875,0,8.828-3.952,8.828-8.828V70.621c0-4.875-3.952-8.828-8.828-8.828
			s-8.828,3.952-8.828,8.828v79.448C247.172,154.944,251.125,158.897,256,158.897z"/>
		<path style="fill:#3D324C;" d="M141.241,194.207h44.138c4.875,0,8.828-3.952,8.828-8.828c0-4.875-3.952-8.828-8.828-8.828h-44.138
			c-4.875,0-8.828,3.952-8.828,8.828C132.414,190.255,136.366,194.207,141.241,194.207z"/>
		<path style="fill:#3D324C;" d="M326.621,194.207h44.138c4.875,0,8.828-3.952,8.828-8.828c0-4.875-3.952-8.828-8.828-8.828h-44.138
			c-4.875,0-8.828,3.952-8.828,8.828C317.793,190.255,321.745,194.207,326.621,194.207z"/>
		<path style="fill:#3D324C;" d="M158.897,264.828v26.483c0,4.875,3.952,8.828,8.828,8.828s8.828-3.952,8.828-8.828v-26.483h158.897
			v26.483c0,4.875,3.952,8.828,8.828,8.828s8.828-3.952,8.828-8.828v-26.483c0-9.751-7.905-17.655-17.655-17.655h-70.621V220.69
			c0-4.875-3.952-8.828-8.828-8.828s-8.828,3.952-8.828,8.828v26.483h-70.621C166.801,247.172,158.897,255.077,158.897,264.828z"/>
	</g>
	<path style="fill:#26B99A;" d="M326.621,17.655v35.31c-0.029,9.739-7.917,17.626-17.655,17.655H220.69V0h88.276
		C318.704,0.029,326.592,7.917,326.621,17.655z"/>
	<g>
		<path style="fill:#14A085;" d="M229.517,0v70.621h-26.483c-9.739-0.029-17.626-7.917-17.655-17.655v-35.31
			C185.408,7.917,193.296,0.029,203.034,0H229.517z"/>
		<path style="fill:#14A085;" d="M291.31,44.138h-26.483c-4.875,0-8.828-3.952-8.828-8.828s3.952-8.828,8.828-8.828h26.483
			c4.875,0,8.828,3.952,8.828,8.828S296.186,44.138,291.31,44.138z"/>
	</g>
	<path style="fill:#F0C419;" d="M141.241,167.724v35.31c-0.029,9.739-7.917,17.626-17.655,17.655H35.31v-70.621h88.276
		C133.325,150.098,141.212,157.986,141.241,167.724z"/>
	<g>
		<path style="fill:#F29C1F;" d="M44.138,150.069v70.621H17.655C7.917,220.661,0.029,212.773,0,203.034v-35.31
			c0.029-9.739,7.917-17.626,17.655-17.655H44.138z"/>
		<path style="fill:#F29C1F;" d="M105.931,194.207H79.448c-4.875,0-8.828-3.952-8.828-8.828c0-4.875,3.952-8.828,8.828-8.828h26.483
			c4.875,0,8.828,3.952,8.828,8.828C114.759,190.255,110.806,194.207,105.931,194.207z"/>
	</g>
	<path style="fill:#F0C419;" d="M326.621,167.724v35.31c-0.029,9.739-7.917,17.626-17.655,17.655H220.69v-70.621h88.276
		C318.704,150.098,326.592,157.986,326.621,167.724z"/>
	<g>
		<path style="fill:#F29C1F;" d="M229.517,150.069v70.621h-26.483c-9.739-0.029-17.626-7.917-17.655-17.655v-35.31
			c0.029-9.739,7.917-17.626,17.655-17.655H229.517z"/>
		<path style="fill:#F29C1F;" d="M291.31,194.207h-26.483c-4.875,0-8.828-3.952-8.828-8.828c0-4.875,3.952-8.828,8.828-8.828h26.483
			c4.875,0,8.828,3.952,8.828,8.828C300.138,190.255,296.186,194.207,291.31,194.207z"/>
	</g>
	<path style="fill:#F0C419;" d="M238.345,308.966v35.31c-0.029,9.739-7.917,17.626-17.655,17.655h-88.276V291.31h88.276
		C230.428,291.339,238.316,299.227,238.345,308.966z"/>
	<g>
		<path style="fill:#F29C1F;" d="M141.241,291.31v70.621h-26.483c-9.739-0.029-17.626-7.917-17.655-17.655v-35.31
			c0.029-9.739,7.917-17.626,17.655-17.655H141.241z"/>
		<path style="fill:#F29C1F;" d="M203.034,335.448h-26.483c-4.875,0-8.828-3.952-8.828-8.828s3.952-8.828,8.828-8.828h26.483
			c4.875,0,8.828,3.952,8.828,8.828S207.91,335.448,203.034,335.448z"/>
	</g>
	<path style="fill:#F0C419;" d="M414.897,308.966v35.31c-0.029,9.739-7.917,17.626-17.655,17.655h-88.276V291.31h88.276
		C406.98,291.339,414.867,299.227,414.897,308.966z"/>
	<g>
		<path style="fill:#F29C1F;" d="M317.793,291.31v70.621H291.31c-9.739-0.029-17.626-7.917-17.655-17.655v-35.31
			c0.029-9.739,7.917-17.626,17.655-17.655H317.793z"/>
		<path style="fill:#F29C1F;" d="M379.586,335.448h-26.483c-4.875,0-8.828-3.952-8.828-8.828s3.952-8.828,8.828-8.828h26.483
			c4.875,0,8.828,3.952,8.828,8.828S384.462,335.448,379.586,335.448z"/>
	</g>
	<path style="fill:#F0C419;" d="M512,167.724v35.31c-0.029,9.739-7.917,17.626-17.655,17.655h-88.276v-70.621h88.276
		C504.083,150.098,511.971,157.986,512,167.724z"/>
	<g>
		<path style="fill:#F29C1F;" d="M414.897,150.069v70.621h-26.483c-9.739-0.029-17.626-7.917-17.655-17.655v-35.31
			c0.029-9.739,7.917-17.626,17.655-17.655H414.897z"/>
		<path style="fill:#F29C1F;" d="M476.69,194.207h-26.483c-4.875,0-8.828-3.952-8.828-8.828c0-4.875,3.952-8.828,8.828-8.828h26.483
			c4.875,0,8.828,3.952,8.828,8.828C485.517,190.255,481.565,194.207,476.69,194.207z"/>
	</g>
	<path style="fill:#FF5364;" d="M141.241,459.034v35.31c-0.029,9.739-7.917,17.626-17.655,17.655H35.31v-70.621h88.276
		C133.325,441.408,141.212,449.296,141.241,459.034z"/>
	<path style="fill:#DF4D60;" d="M44.138,441.379V512H17.655C7.917,511.971,0.029,504.083,0,494.345v-35.31
		c0.029-9.739,7.917-17.626,17.655-17.655H44.138z"/>
	<path style="fill:#802D40;" d="M105.931,485.517H79.448c-4.875,0-8.828-3.952-8.828-8.828s3.952-8.828,8.828-8.828h26.483
		c4.875,0,8.828,3.952,8.828,8.828S110.806,485.517,105.931,485.517z"/>
	<path style="fill:#FF5364;" d="M326.621,459.034v35.31c-0.029,9.739-7.917,17.626-17.655,17.655H220.69v-70.621h88.276
		C318.704,441.408,326.592,449.296,326.621,459.034z"/>
	<path style="fill:#DF4D60;" d="M229.517,441.379V512h-26.483c-9.739-0.029-17.626-7.917-17.655-17.655v-35.31
		c0.029-9.739,7.917-17.626,17.655-17.655H229.517z"/>
	<path style="fill:#802D40;" d="M291.31,485.517h-26.483c-4.875,0-8.828-3.952-8.828-8.828s3.952-8.828,8.828-8.828h26.483
		c4.875,0,8.828,3.952,8.828,8.828S296.186,485.517,291.31,485.517z"/>
	<path style="fill:#FF5364;" d="M512,459.034v35.31c-0.029,9.739-7.917,17.626-17.655,17.655h-88.276v-70.621h88.276
		C504.083,441.408,511.971,449.296,512,459.034z"/>
	<path style="fill:#DF4D60;" d="M414.897,441.379V512h-26.483c-9.739-0.029-17.626-7.917-17.655-17.655v-35.31
		c0.029-9.739,7.917-17.626,17.655-17.655H414.897z"/>
	<path style="fill:#802D40;" d="M476.69,485.517h-26.483c-4.875,0-8.828-3.952-8.828-8.828s3.952-8.828,8.828-8.828h26.483
		c4.875,0,8.828,3.952,8.828,8.828S481.565,485.517,476.69,485.517z"/>
</g>
<g>
</g>
<g>
</g>
<g>
</g>
<g>
</g>
<g>
</g>
<g>
</g>
<g>
</g>
<g>
</g>
<g>
</g>
<g>
</g>
<g>
</g>
<g>
</g>
<g>
</g>
<g>
</g>
<g>
</g>
</svg>
