<?xml version="1.0" encoding="UTF-8" standalone="no"?>
<svg
   xmlns:dc="http://purl.org/dc/elements/1.1/"
   xmlns:cc="http://creativecommons.org/ns#"
   xmlns:rdf="http://www.w3.org/1999/02/22-rdf-syntax-ns#"
   xmlns:svg="http://www.w3.org/2000/svg"
   xmlns="http://www.w3.org/2000/svg"
   xmlns:sodipodi="http://sodipodi.sourceforge.net/DTD/sodipodi-0.dtd"
   xmlns:inkscape="http://www.inkscape.org/namespaces/inkscape"
   class="example-box-model example-box"
   id="multi-morph-example-2"
   viewBox="0 0 513 513"
   version="1.1"
   sodipodi:docname="k.svg"
   inkscape:version="0.92.3 (2405546, 2018-03-11)">
  <metadata
     id="metadata18">
    <rdf:RDF>
      <cc:Work
         rdf:about="">
        <dc:format>image/svg+xml</dc:format>
        <dc:type
           rdf:resource="http://purl.org/dc/dcmitype/StillImage" />
      </cc:Work>
    </rdf:RDF>
  </metadata>
  <sodipodi:namedview
     pagecolor="#ffffff"
     bordercolor="#666666"
     borderopacity="1"
     objecttolerance="10"
     gridtolerance="10"
     guidetolerance="10"
     inkscape:pageopacity="0"
     inkscape:pageshadow="2"
     inkscape:window-width="2560"
     inkscape:window-height="1373"
     id="namedview16"
     showgrid="false"
     inkscape:zoom="0.46003899"
     inkscape:cx="-182.59322"
     inkscape:cy="227.10267"
     inkscape:window-x="1920"
     inkscape:window-y="30"
     inkscape:window-maximized="1"
     inkscape:current-layer="layer1" />
  <defs
     id="defs11" />
  <g
     inkscape:groupmode="layer"
     id="layer1"
     inkscape:label="Layer 1"
     style="display:inline">
    <path
       style="fill:#79a741;fill-opacity:1"
       id="rectangle-container"
       mask="none"
       d="M 428.32353,2.1737288 H 86.995534 c -46.937,0 -85.3429996,38.4050002 -85.3429996,85.3449992 V 428.82973 c 0,46.969 38.4059996,85.344 85.3429996,85.344 H 428.32353 c 46.938,0 85.329,-38.375 85.329,-85.345 V 87.518728 c 0,-46.939999 -38.391,-85.3449992 -85.329,-85.3449992 z"
       inkscape:connector-curvature="0" />
    <path
       d="m 166.23646,348.6101 h -55.632 c -3.351,0 -5.85401,-1.504 -7.27101,-3.792 -1.467,-2.379 -1.542,-5.464 0,-8.534 l 59.11001,-104.313 c 0.063,-0.114 0.063,-0.19 0,-0.316 l -37.615,-65.116 c -1.556,-3.098 -1.783,-6.157 -0.316,-8.534 1.417,-2.301 4.235,-3.477 7.586,-3.477 h 55.632 c 8.535,0 12.72,5.499 15.489,10.431 0,0 38.02,66.33 38.249,66.696 -2.252,3.97 -60.059,106.21 -60.059,106.21 -2.844,5.131 -6.852,10.745 -15.173,10.745 z"
       id="symbol-left-clone"
       inkscape:connector-curvature="0"
       style="fill:#ffffff" />
    <path
       d="M 429.30346,90.485097 306.12746,308.2751 c -0.075,0.115 -0.075,0.255 0,0.367 l 78.431,143.295 c 1.556,3.084 1.593,6.221 0.113,8.597 -1.415,2.288 -4.033,3.552 -7.383,3.552 h -55.57 c -8.522,0 -12.783,-5.663 -15.54,-10.596 0,0 -78.848,-144.646 -79.05,-145.023 3.944,-6.98 123.797,-219.523003 123.797,-219.523003 2.984,-5.362 6.587,-10.596 14.894,-10.596 h 56.203 c 3.351,0 5.981,1.265 7.396,3.553 1.466,2.376 1.428,5.511 -0.115,8.584 z"
       id="symbol-right"
       inkscape:connector-curvature="0"
       style="fill:#ffffff" />
  </g>
</svg>
