<?xml version="1.0" encoding="UTF-8" standalone="no"?>
<svg
   xmlns:dc="http://purl.org/dc/elements/1.1/"
   xmlns:cc="http://creativecommons.org/ns#"
   xmlns:rdf="http://www.w3.org/1999/02/22-rdf-syntax-ns#"
   xmlns:svg="http://www.w3.org/2000/svg"
   xmlns="http://www.w3.org/2000/svg"
   xmlns:sodipodi="http://sodipodi.sourceforge.net/DTD/sodipodi-0.dtd"
   xmlns:inkscape="http://www.inkscape.org/namespaces/inkscape"
   class="example-box-model example-box"
   id="multi-morph-example-2"
   viewBox="0 0 837.38239 202.88867"
   version="1.1"
   sodipodi:docname="mainlogo.svg"
   inkscape:version="0.92.3 (2405546, 2018-03-11)"
   inkscape:export-filename="/home/david/Programming/kompound-solutions-src/favicon.png"
   inkscape:export-xdpi="24"
   inkscape:export-ydpi="24"
   width="837.38239"
   height="202.88867"
   style="enable-background:new">
  <metadata
     id="metadata18">
    <rdf:RDF>
      <cc:Work
         rdf:about="">
        <dc:format>image/svg+xml</dc:format>
        <dc:type
           rdf:resource="http://purl.org/dc/dcmitype/StillImage" />
        <dc:title />
      </cc:Work>
    </rdf:RDF>
  </metadata>
  <sodipodi:namedview
     pagecolor="#ffffff"
     bordercolor="#666666"
     borderopacity="1"
     objecttolerance="10"
     gridtolerance="10"
     guidetolerance="10"
     inkscape:pageopacity="0"
     inkscape:pageshadow="2"
     inkscape:window-width="1397"
     inkscape:window-height="986"
     id="namedview16"
     showgrid="false"
     inkscape:zoom="0.54239087"
     inkscape:cx="-203.08721"
     inkscape:cy="74.817862"
     inkscape:window-x="2979"
     inkscape:window-y="239"
     inkscape:window-maximized="0"
     inkscape:current-layer="multi-morph-example-2"
     fit-margin-top="0"
     fit-margin-left="0"
     fit-margin-right="0"
     fit-margin-bottom="0" />
  <defs
     id="defs11" />
  <g
     inkscape:groupmode="layer"
     id="layer1"
     inkscape:label="Layer 1"
     transform="translate(68.129334,14.73366)">
    <path
       style="fill:#79a741;fill-opacity:1;stroke-width:0.33022243"
       id="rectangle-container"
       mask="none"
       d="M 142.54886,2.1737288 H 29.834706 c -15.49965,0 -28.1821716,12.6821922 -28.1821716,28.1828322 V 143.0651 c 0,15.51022 12.6825216,28.18251 28.1821716,28.18251 H 142.54886 c 15.49998,0 28.17755,-12.67229 28.17755,-28.18284 V 30.356561 c 0,-15.50064 -12.67757,-28.1828322 -28.17755,-28.1828322 z"
       inkscape:connector-curvature="0" />
    <path
       d="M 56.001836,116.57478 H 37.630903 c -1.106576,0 -1.933126,-0.49665 -2.401051,-1.2522 -0.484436,-0.7856 -0.509203,-1.80433 0,-2.81812 l 19.51945,-34.446488 c 0.0208,-0.03765 0.0208,-0.06274 0,-0.10435 L 42.327986,56.450859 c -0.513826,-1.023029 -0.588786,-2.03318 -0.10435,-2.818118 0.467925,-0.759842 1.398492,-1.148184 2.505067,-1.148184 h 18.370934 c 2.818448,0 4.200429,1.815894 5.114815,3.44455 0,0 12.555056,21.903653 12.630677,22.024515 -0.743661,1.310983 -19.832828,35.072918 -19.832828,35.072918 -0.939153,1.69438 -2.262684,3.54824 -5.010465,3.54824 z"
       id="symbol-left-clone"
       inkscape:connector-curvature="0"
       style="fill:#ffffff;stroke-width:0.33022243" />
    <path
       d="m 142.87246,31.336122 -40.67548,71.919138 c -0.0248,0.038 -0.0248,0.0842 0,0.12119 l 25.89967,47.31923 c 0.51383,1.0184 0.52605,2.05431 0.0373,2.83892 -0.46727,0.75555 -1.33179,1.17295 -2.43803,1.17295 h -18.35046 c -2.81416,0 -4.22124,-1.87005 -5.13166,-3.49904 0,0 -26.037376,-47.76535 -26.104081,-47.88984 1.302398,-2.30496 40.880541,-72.491421 40.880541,-72.491421 0.98539,-1.770652 2.17518,-3.499036 4.91834,-3.499036 h 18.55949 c 1.10657,0 1.97506,0.417731 2.44232,1.17328 0.48411,0.784608 0.47156,1.819856 -0.038,2.834629 z"
       id="symbol-right"
       inkscape:connector-curvature="0"
       style="fill:#ffffff;stroke-width:0.33022243" />
    <g
       transform="translate(-58.452547,-293.20474)"
       id="logo-group">
      <g
         style="font-style:normal;font-weight:800;font-size:72px;line-height:1;font-family:'Montserrat ExtraBold Alt1';font-variant-ligatures:none;text-align:center;text-anchor:middle"
         aria-label="Kompound Solutions"
         id="title">
        <path
           inkscape:connector-curvature="0"
           style="font-style:normal;font-weight:800;font-size:72px;line-height:1;font-family:'Montserrat ExtraBold Alt1';font-variant-ligatures:none;text-align:center;text-anchor:middle;fill:#79a741"
           transform="matrix(1.1850971,0,0,1.1850971,129.88159,371.80464)"
           d="m 129.03481,-50.4 h -14.112 v 21.456 l 14.112,-15.336 z m 14.616,22.32 20.592,-22.32 h -15.696 l -19.512,20.952 -14.112,15.192 V 0 h 14.112 v -12.6 l 5.328,-5.688 14.4,18.288 h 16.56 z"
           id="path14" />
        <path
           inkscape:connector-curvature="0"
           style="font-style:normal;font-weight:800;font-size:72px;line-height:1;font-family:'Montserrat ExtraBold Alt1';font-variant-ligatures:none;text-align:center;text-anchor:middle;fill:#79a741"
           transform="matrix(1.1850971,0,0,1.1850971,129.88159,371.80464)"
           d="m 175.14856,-1.944 c 3.312,1.728 7.128,2.592 11.304,2.592 4.176,0 7.992,-0.864 11.376,-2.592 3.312,-1.728 5.976,-4.104 7.848,-7.2 1.872,-3.024 2.808,-6.552 2.808,-10.44 0,-3.888 -0.936,-7.344 -2.808,-10.368 -1.872,-3.024 -4.536,-5.4 -7.848,-7.128 -3.384,-1.728 -7.2,-2.592 -11.376,-2.592 -4.248,0 -8.064,0.864 -11.376,2.592 -3.312,1.728 -5.976,4.104 -7.848,7.128 -1.872,3.096 -2.808,6.552 -2.808,10.368 0,3.888 0.936,7.416 2.808,10.44 1.872,3.096 4.536,5.472 7.92,7.2 z m 17.208,-10.728 c -1.584,1.656 -3.528,2.448 -5.904,2.448 -2.448,0 -4.392,-0.792 -5.904,-2.448 -1.584,-1.656 -2.304,-3.96 -2.304,-6.912 0,-2.88 0.72,-5.112 2.304,-6.768 1.512,-1.584 3.456,-2.448 5.904,-2.448 2.376,0 4.32,0.864 5.904,2.448 1.512,1.656 2.304,3.888 2.304,6.768 0,2.952 -0.792,5.256 -2.304,6.912 z"
           id="path16" />
        <path
           inkscape:connector-curvature="0"
           style="font-style:normal;font-weight:800;font-size:72px;line-height:1;font-family:'Montserrat ExtraBold Alt1';font-variant-ligatures:none;text-align:center;text-anchor:middle;fill:#79a741"
           transform="matrix(1.1850971,0,0,1.1850971,129.88159,371.80464)"
           d="m 277.10169,-35.352 c -2.88,-2.88 -6.696,-4.32 -11.448,-4.32 -2.808,0 -5.4,0.576 -7.704,1.584 -2.376,1.08 -4.32,2.592 -5.832,4.536 -1.368,-2.016 -3.096,-3.6 -5.256,-4.608 -2.16,-1.008 -4.608,-1.512 -7.344,-1.512 -2.376,0 -4.536,0.432 -6.552,1.224 -2.016,0.792 -3.672,1.944 -5.112,3.528 v -4.104 h -13.032 V 0 h 13.68 v -19.368 c 0,-2.88 0.576,-5.112 1.872,-6.552 1.224,-1.44 2.88,-2.16 5.04,-2.16 3.888,0 5.904,2.664 5.904,7.992 V 0 h 13.68 v -19.368 c 0,-2.88 0.576,-5.112 1.872,-6.552 1.224,-1.44 2.88,-2.16 4.968,-2.16 1.872,0 3.312,0.648 4.32,1.944 1.008,1.296 1.584,3.312 1.584,6.048 V 0 h 13.68 v -22.32 c 0,-5.76 -1.44,-10.152 -4.32,-13.032 z"
           id="path18" />
        <path
           inkscape:connector-curvature="0"
           style="font-style:normal;font-weight:800;font-size:72px;line-height:1;font-family:'Montserrat ExtraBold Alt1';font-variant-ligatures:none;text-align:center;text-anchor:middle;fill:#79a741"
           transform="matrix(1.1850971,0,0,1.1850971,129.88159,371.80464)"
           d="m 324.25606,-37.152 c -2.88,-1.656 -6.12,-2.52 -9.648,-2.52 -5.184,0 -9,1.512 -11.52,4.536 v -3.888 h -13.032 v 52.992 h 13.68 V -3.456 c 2.664,2.736 6.264,4.104 10.872,4.104 3.528,0 6.768,-0.792 9.648,-2.448 2.88,-1.656 5.184,-4.032 6.912,-7.056 1.728,-3.024 2.592,-6.624 2.592,-10.656 0,-4.032 -0.864,-7.56 -2.592,-10.584 -1.728,-3.024 -4.032,-5.4 -6.912,-7.056 z m -6.624,24.48 c -1.584,1.656 -3.528,2.448 -5.904,2.448 -2.448,0 -4.392,-0.792 -5.904,-2.448 -1.584,-1.656 -2.304,-3.96 -2.304,-6.84 0,-2.88 0.72,-5.112 2.304,-6.768 1.512,-1.656 3.456,-2.52 5.904,-2.52 2.376,0 4.32,0.864 5.904,2.52 1.512,1.656 2.304,3.888 2.304,6.768 0,2.88 -0.792,5.184 -2.304,6.84 z"
           id="path20" />
        <path
           inkscape:connector-curvature="0"
           style="font-style:normal;font-weight:800;font-size:72px;line-height:1;font-family:'Montserrat ExtraBold Alt1';font-variant-ligatures:none;text-align:center;text-anchor:middle;fill:#79a741"
           transform="matrix(1.1850971,0,0,1.1850971,129.88159,371.80464)"
           d="m 348.39856,-1.944 c 3.312,1.728 7.128,2.592 11.304,2.592 4.176,0 7.992,-0.864 11.376,-2.592 3.312,-1.728 5.976,-4.104 7.848,-7.2 1.872,-3.024 2.808,-6.552 2.808,-10.44 0,-3.888 -0.936,-7.344 -2.808,-10.368 -1.872,-3.024 -4.536,-5.4 -7.848,-7.128 -3.384,-1.728 -7.2,-2.592 -11.376,-2.592 -4.248,0 -8.064,0.864 -11.376,2.592 -3.312,1.728 -5.976,4.104 -7.848,7.128 -1.872,3.096 -2.808,6.552 -2.808,10.368 0,3.888 0.936,7.416 2.808,10.44 1.872,3.096 4.536,5.472 7.92,7.2 z m 17.208,-10.728 c -1.584,1.656 -3.528,2.448 -5.904,2.448 -2.448,0 -4.392,-0.792 -5.904,-2.448 -1.584,-1.656 -2.304,-3.96 -2.304,-6.912 0,-2.88 0.72,-5.112 2.304,-6.768 1.512,-1.584 3.456,-2.448 5.904,-2.448 2.376,0 4.32,0.864 5.904,2.448 1.512,1.656 2.304,3.888 2.304,6.768 0,2.952 -0.792,5.256 -2.304,6.912 z"
           id="path22" />
        <path
           inkscape:connector-curvature="0"
           style="font-style:normal;font-weight:800;font-size:72px;line-height:1;font-family:'Montserrat ExtraBold Alt1';font-variant-ligatures:none;text-align:center;text-anchor:middle;fill:#79a741"
           transform="matrix(1.1850971,0,0,1.1850971,129.88159,371.80464)"
           d="m 429.11169,-39.024 h -13.68 v 18.792 c 0,3.168 -0.72,5.472 -2.088,6.984 -1.368,1.512 -3.096,2.232 -5.256,2.232 -2.16,0 -3.744,-0.648 -4.824,-2.016 -1.152,-1.296 -1.656,-3.456 -1.656,-6.408 v -19.584 h -13.68 v 21.816 c 0,5.976 1.44,10.44 4.464,13.392 3.024,3.024 7.056,4.464 12.096,4.464 2.232,0 4.392,-0.36 6.408,-1.224 2.016,-0.792 3.744,-2.016 5.184,-3.6 V 0 h 13.032 z"
           id="path24" />
        <path
           inkscape:connector-curvature="0"
           style="font-style:normal;font-weight:800;font-size:72px;line-height:1;font-family:'Montserrat ExtraBold Alt1';font-variant-ligatures:none;text-align:center;text-anchor:middle;fill:#79a741"
           transform="matrix(1.1850971,0,0,1.1850971,129.88159,371.80464)"
           d="m 474.93294,-35.352 c -2.952,-2.88 -6.84,-4.32 -11.664,-4.32 -2.52,0 -4.824,0.432 -6.912,1.296 -2.16,0.864 -3.96,2.016 -5.472,3.6 v -4.248 h -13.032 V 0 h 13.68 v -18.864 c 0,-3.024 0.648,-5.328 2.088,-6.912 1.44,-1.512 3.312,-2.304 5.688,-2.304 4.248,0 6.408,2.664 6.408,7.992 V 0 h 13.68 v -22.32 c 0,-5.76 -1.512,-10.152 -4.464,-13.032 z"
           id="path26" />
        <path
           inkscape:connector-curvature="0"
           style="font-style:normal;font-weight:800;font-size:72px;line-height:1;font-family:'Montserrat ExtraBold Alt1';font-variant-ligatures:none;text-align:center;text-anchor:middle;fill:#79a741"
           transform="matrix(1.1850971,0,0,1.1850971,129.88159,371.80464)"
           d="m 529.94994,-53.424 h -13.68 v 17.784 c -2.592,-2.664 -6.192,-4.032 -10.8,-4.032 -3.6,0 -6.84,0.864 -9.72,2.448 -2.952,1.656 -5.256,4.032 -6.984,7.056 -1.728,3.024 -2.52,6.552 -2.52,10.584 0,4.032 0.792,7.632 2.52,10.656 1.728,3.096 4.032,5.472 6.984,7.128 2.88,1.656 6.12,2.448 9.72,2.448 5.04,0 8.856,-1.512 11.448,-4.536 V 0 h 13.032 z m -15.768,40.752 c -1.584,1.656 -3.528,2.448 -5.832,2.448 -2.448,0 -4.392,-0.792 -5.904,-2.448 -1.584,-1.656 -2.304,-3.96 -2.304,-6.912 0,-2.88 0.72,-5.112 2.304,-6.768 1.512,-1.584 3.456,-2.448 5.904,-2.448 2.376,0 4.32,0.864 5.832,2.448 1.512,1.656 2.304,3.888 2.304,6.768 0,2.952 -0.792,5.256 -2.304,6.912 z"
           id="path28" />
        <path
           inkscape:connector-curvature="0"
           style="font-style:normal;font-weight:800;font-size:72px;line-height:1;font-family:'Montserrat ExtraBold Alt1';font-variant-ligatures:none;text-align:center;text-anchor:middle;fill:#79a741"
           transform="matrix(1.1850971,0,0,1.1850971,-358.67209,458.31341)"
           d="m 566.11419,-0.504 c 3.816,1.008 7.776,1.512 11.88,1.512 4.752,0 8.856,-0.72 12.24,-2.16 3.312,-1.44 5.832,-3.456 7.56,-5.904 1.656,-2.448 2.52,-5.184 2.52,-8.208 0,-3.456 -0.936,-6.264 -2.808,-8.28 -1.872,-2.016 -4.032,-3.528 -6.552,-4.464 -2.52,-0.936 -5.688,-1.8 -9.504,-2.664 -3.456,-0.72 -5.904,-1.368 -7.416,-2.088 -1.584,-0.648 -2.304,-1.656 -2.304,-3.024 0,-1.296 0.648,-2.376 1.944,-3.24 1.296,-0.864 3.312,-1.296 6.192,-1.296 4.464,0 9.144,1.296 13.968,3.888 l 4.392,-10.584 c -2.448,-1.44 -5.328,-2.52 -8.496,-3.24 -3.24,-0.72 -6.48,-1.152 -9.792,-1.152 -4.896,0 -9,0.72 -12.312,2.16 -3.312,1.44 -5.832,3.456 -7.488,5.904 -1.728,2.448 -2.52,5.256 -2.52,8.28 0,3.528 0.864,6.336 2.736,8.352 1.8,2.088 3.96,3.6 6.552,4.536 2.52,0.936 5.688,1.8 9.504,2.592 3.456,0.792 5.904,1.512 7.488,2.232 1.584,0.72 2.376,1.728 2.376,3.168 0,2.736 -2.736,4.104 -8.208,4.104 -2.88,0 -5.832,-0.432 -8.784,-1.368 -3.024,-0.864 -5.616,-2.088 -7.848,-3.6 l -4.68,10.512 c 2.376,1.728 5.472,3.024 9.36,4.032 z"
           id="path30" />
        <path
           inkscape:connector-curvature="0"
           style="font-style:normal;font-weight:800;font-size:72px;line-height:1;font-family:'Montserrat ExtraBold Alt1';font-variant-ligatures:none;text-align:center;text-anchor:middle;fill:#79a741"
           transform="matrix(1.1850971,0,0,1.1850971,-358.67209,458.31341)"
           d="m 614.46106,-1.944 c 3.312,1.728 7.128,2.592 11.304,2.592 4.176,0 7.992,-0.864 11.376,-2.592 3.312,-1.728 5.976,-4.104 7.848,-7.2 1.872,-3.024 2.808,-6.552 2.808,-10.44 0,-3.888 -0.936,-7.344 -2.808,-10.368 -1.872,-3.024 -4.536,-5.4 -7.848,-7.128 -3.384,-1.728 -7.2,-2.592 -11.376,-2.592 -4.248,0 -8.064,0.864 -11.376,2.592 -3.312,1.728 -5.976,4.104 -7.848,7.128 -1.872,3.096 -2.808,6.552 -2.808,10.368 0,3.888 0.936,7.416 2.808,10.44 1.872,3.096 4.536,5.472 7.92,7.2 z m 17.208,-10.728 c -1.584,1.656 -3.528,2.448 -5.904,2.448 -2.448,0 -4.392,-0.792 -5.904,-2.448 -1.584,-1.656 -2.304,-3.96 -2.304,-6.912 0,-2.88 0.72,-5.112 2.304,-6.768 1.512,-1.584 3.456,-2.448 5.904,-2.448 2.376,0 4.32,0.864 5.904,2.448 1.512,1.656 2.304,3.888 2.304,6.768 0,2.952 -0.792,5.256 -2.304,6.912 z"
           id="path32" />
        <path
           inkscape:connector-curvature="0"
           style="font-style:normal;font-weight:800;font-size:72px;line-height:1;font-family:'Montserrat ExtraBold Alt1';font-variant-ligatures:none;text-align:center;text-anchor:middle;fill:#79a741"
           transform="matrix(1.1850971,0,0,1.1850971,-358.67209,458.31341)"
           d="M 654.13419,-53.424 V 0 h 13.68 v -53.424 z"
           id="path34" />
        <path
           inkscape:connector-curvature="0"
           style="font-style:normal;font-weight:800;font-size:72px;line-height:1;font-family:'Montserrat ExtraBold Alt1';font-variant-ligatures:none;text-align:center;text-anchor:middle;fill:#79a741"
           transform="matrix(1.1850971,0,0,1.1850971,-358.67209,458.31341)"
           d="m 717.67419,-39.024 h -13.68 v 18.792 c 0,3.168 -0.72,5.472 -2.088,6.984 -1.368,1.512 -3.096,2.232 -5.256,2.232 -2.16,0 -3.744,-0.648 -4.824,-2.016 -1.152,-1.296 -1.656,-3.456 -1.656,-6.408 v -19.584 h -13.68 v 21.816 c 0,5.976 1.44,10.44 4.464,13.392 3.024,3.024 7.056,4.464 12.096,4.464 2.232,0 4.392,-0.36 6.408,-1.224 2.016,-0.792 3.744,-2.016 5.184,-3.6 V 0 h 13.032 z"
           id="path36" />
        <path
           inkscape:connector-curvature="0"
           style="font-style:normal;font-weight:800;font-size:72px;line-height:1;font-family:'Montserrat ExtraBold Alt1';font-variant-ligatures:none;text-align:center;text-anchor:middle;fill:#79a741"
           transform="matrix(1.1850971,0,0,1.1850971,-358.67209,458.31341)"
           d="m 753.34344,-1.584 -3.384,-9.576 c -1.224,0.864 -2.592,1.224 -4.176,1.224 -1.296,0 -2.304,-0.36 -3.024,-1.152 -0.72,-0.792 -1.08,-1.872 -1.08,-3.312 v -12.96 h 8.928 v -10.224 h -8.928 v -10.152 h -13.68 v 10.152 h -5.688 v 10.224 h 5.688 v 13.104 c 0,4.968 1.368,8.712 4.104,11.16 2.736,2.52 6.624,3.744 11.736,3.744 1.872,0 3.6,-0.144 5.256,-0.576 1.656,-0.36 3.096,-0.936 4.248,-1.656 z"
           id="path38" />
        <path
           inkscape:connector-curvature="0"
           style="font-style:normal;font-weight:800;font-size:72px;line-height:1;font-family:'Montserrat ExtraBold Alt1';font-variant-ligatures:none;text-align:center;text-anchor:middle;fill:#79a741"
           transform="matrix(1.1850971,0,0,1.1850971,-358.67209,458.31341)"
           d="M 758.61856,-39.024 V 0 h 13.68 v -39.024 z m 0.792,-6.408 c 1.512,1.44 3.528,2.088 6.048,2.088 2.448,0 4.464,-0.648 6.048,-2.088 1.512,-1.44 2.304,-3.24 2.304,-5.4 0,-2.016 -0.792,-3.744 -2.304,-5.04 -1.584,-1.296 -3.6,-2.016 -6.048,-2.016 -2.52,0 -4.536,0.72 -6.048,2.088 -1.584,1.44 -2.304,3.168 -2.304,5.184 0,2.088 0.72,3.816 2.304,5.184 z"
           id="path40" />
        <path
           inkscape:connector-curvature="0"
           style="font-style:normal;font-weight:800;font-size:72px;line-height:1;font-family:'Montserrat ExtraBold Alt1';font-variant-ligatures:none;text-align:center;text-anchor:middle;fill:#79a741"
           transform="matrix(1.1850971,0,0,1.1850971,-358.67209,458.31341)"
           d="m 789.39856,-1.944 c 3.312,1.728 7.128,2.592 11.304,2.592 4.176,0 7.992,-0.864 11.376,-2.592 3.312,-1.728 5.976,-4.104 7.848,-7.2 1.872,-3.024 2.808,-6.552 2.808,-10.44 0,-3.888 -0.936,-7.344 -2.808,-10.368 -1.872,-3.024 -4.536,-5.4 -7.848,-7.128 -3.384,-1.728 -7.2,-2.592 -11.376,-2.592 -4.248,0 -8.064,0.864 -11.376,2.592 -3.312,1.728 -5.976,4.104 -7.848,7.128 -1.872,3.096 -2.808,6.552 -2.808,10.368 0,3.888 0.936,7.416 2.808,10.44 1.872,3.096 4.536,5.472 7.92,7.2 z m 17.208,-10.728 c -1.584,1.656 -3.528,2.448 -5.904,2.448 -2.448,0 -4.392,-0.792 -5.904,-2.448 -1.584,-1.656 -2.304,-3.96 -2.304,-6.912 0,-2.88 0.72,-5.112 2.304,-6.768 1.512,-1.584 3.456,-2.448 5.904,-2.448 2.376,0 4.32,0.864 5.904,2.448 1.512,1.656 2.304,3.888 2.304,6.768 0,2.952 -0.792,5.256 -2.304,6.912 z"
           id="path42" />
        <path
           inkscape:connector-curvature="0"
           style="font-style:normal;font-weight:800;font-size:72px;line-height:1;font-family:'Montserrat ExtraBold Alt1';font-variant-ligatures:none;text-align:center;text-anchor:middle;fill:#79a741"
           transform="matrix(1.1850971,0,0,1.1850971,-358.67209,458.31341)"
           d="m 866.15169,-35.352 c -2.952,-2.88 -6.84,-4.32 -11.664,-4.32 -2.52,0 -4.824,0.432 -6.912,1.296 -2.16,0.864 -3.96,2.016 -5.472,3.6 v -4.248 h -13.032 V 0 h 13.68 v -18.864 c 0,-3.024 0.648,-5.328 2.088,-6.912 1.44,-1.512 3.312,-2.304 5.688,-2.304 4.248,0 6.408,2.664 6.408,7.992 V 0 h 13.68 v -22.32 c 0,-5.76 -1.512,-10.152 -4.464,-13.032 z"
           id="path44" />
        <path
           inkscape:connector-curvature="0"
           style="font-style:normal;font-weight:800;font-size:72px;line-height:1;font-family:'Montserrat ExtraBold Alt1';font-variant-ligatures:none;text-align:center;text-anchor:middle;fill:#79a741"
           transform="matrix(1.1850971,0,0,1.1850971,-358.67209,458.31341)"
           d="m 883.67019,-0.432 c 3.168,0.72 6.336,1.08 9.648,1.08 4.032,0 7.56,-0.504 10.44,-1.656 2.88,-1.08 5.112,-2.592 6.624,-4.536 1.44,-1.944 2.232,-4.176 2.232,-6.624 0,-2.952 -0.792,-5.256 -2.376,-6.912 -1.584,-1.656 -3.384,-2.808 -5.472,-3.456 -2.16,-0.576 -4.824,-1.152 -7.992,-1.656 -2.592,-0.36 -4.392,-0.72 -5.472,-1.08 -1.152,-0.36 -1.656,-1.008 -1.656,-1.944 0,-0.792 0.504,-1.44 1.512,-1.944 1.008,-0.504 2.592,-0.792 4.752,-0.792 4.032,0 7.776,1.008 11.232,2.88 l 4.104,-9.288 c -1.872,-1.008 -4.248,-1.872 -6.984,-2.448 -2.808,-0.576 -5.616,-0.864 -8.424,-0.864 -4.032,0 -7.416,0.576 -10.296,1.728 -2.88,1.152 -5.04,2.664 -6.48,4.608 -1.512,1.944 -2.232,4.176 -2.232,6.624 0,3.024 0.792,5.4 2.376,7.056 1.584,1.728 3.456,2.88 5.616,3.456 2.16,0.648 4.824,1.152 7.992,1.512 2.448,0.36 4.176,0.72 5.328,1.08 1.152,0.36 1.728,0.936 1.728,1.8 0,0.864 -0.504,1.584 -1.44,2.016 -0.936,0.432 -2.52,0.648 -4.68,0.648 -2.448,0 -4.824,-0.288 -7.272,-0.936 -2.448,-0.648 -4.608,-1.512 -6.336,-2.664 l -4.104,9.36 c 1.872,1.224 4.464,2.232 7.632,2.952 z"
           id="path46" />
      </g>
      <g
         style="font-style:normal;font-weight:500;font-size:32px;line-height:1;font-family:Montserrat;font-variant-ligatures:none;text-align:center;text-anchor:middle"
         id="tagline" />
    </g>
  </g>
</svg>
