<?xml version="1.0" encoding="UTF-8" standalone="no"?>
<!-- Created with Inkscape (http://www.inkscape.org/) -->

<svg
   xmlns:dc="http://purl.org/dc/elements/1.1/"
   xmlns:cc="http://creativecommons.org/ns#"
   xmlns:rdf="http://www.w3.org/1999/02/22-rdf-syntax-ns#"
   xmlns:svg="http://www.w3.org/2000/svg"
   xmlns="http://www.w3.org/2000/svg"
   xmlns:sodipodi="http://sodipodi.sourceforge.net/DTD/sodipodi-0.dtd"
   xmlns:inkscape="http://www.inkscape.org/namespaces/inkscape"
   width="391.31mm"
   height="170.95895mm"
   viewBox="0 0 391.31 170.95895"
   version="1.1"
   id="svg8"
   inkscape:version="0.92.3 (2405546, 2018-03-11)"
   sodipodi:docname="paperless.svg">
  <defs
     id="defs2" />
  <sodipodi:namedview
     id="base"
     pagecolor="#ffffff"
     bordercolor="#666666"
     borderopacity="1.0"
     inkscape:pageopacity="0.0"
     inkscape:pageshadow="2"
     inkscape:zoom="0.98994949"
     inkscape:cx="601.37445"
     inkscape:cy="436.65465"
     inkscape:document-units="mm"
     inkscape:current-layer="layer1"
     showgrid="false"
     inkscape:window-width="2560"
     inkscape:window-height="1373"
     inkscape:window-x="1920"
     inkscape:window-y="0"
     inkscape:window-maximized="1"
     fit-margin-top="0"
     fit-margin-left="0"
     fit-margin-right="0"
     fit-margin-bottom="0"
     showguides="false" />
  <metadata
     id="metadata5">
    <rdf:RDF>
      <cc:Work
         rdf:about="">
        <dc:format>image/svg+xml</dc:format>
        <dc:type
           rdf:resource="http://purl.org/dc/dcmitype/StillImage" />
        <dc:title></dc:title>
      </cc:Work>
    </rdf:RDF>
  </metadata>
  <g
     inkscape:label="Layer 1"
     inkscape:groupmode="layer"
     id="layer1">
    <path
       style="fill:#57792f;stroke-width:0.26458332"
       inkscape:connector-curvature="0"
       d="M 89.325184,145.25283 C 88.22928,145.25283 87.340809,146.1413 87.340809,147.23721 V 165.89404 C 87.340809,166.49808 86.849214,166.98968 86.24517,166.98968 H 75.577964 V 127.91151 C 75.577964,126.81561 74.689493,125.92714 73.593589,125.92714 72.497685,125.92714 71.609214,126.81561 71.609214,127.91151 V 166.98994 H 50.129016 L 56.358102,160.13723 C 57.03861,159.38846 57.359549,158.32193 57.21641,157.28317 57.21381,157.26307 57.21061,157.24297 57.20711,157.22287 L 51.274358,122.17431 52.872706,119.76819 C 53.756415,120.39578 54.437188,121.00009 55.713802,121.00009 57.012377,121.00009 58.22655,120.27328 58.823979,119.07683 V 119.07657 L 65.081375,106.53532 79.336066,112.05585 C 79.851739,112.27704 87.340241,115.64942 87.340241,124.55423 V 137.97655 C 87.339977,139.07219 88.228448,139.96092 89.324616,139.96092 90.42052,139.96092 91.308991,139.07245 91.308991,137.97655 V 124.55423 C 91.308991,112.82155 81.263027,108.55673 80.83546,108.38078 80.82303,108.37578 80.81033,108.37048 80.79762,108.36568 L 57.072962,99.177773 V 93.613613 C 60.841157,90.683111 63.453918,86.338945 64.10982,81.382792 65.988626,81.250505 67.731966,80.548828 69.155689,79.324614 71.014916,77.725743 72.081716,75.398748 72.081716,72.94131 72.081716,70.901912 71.345909,68.954594 70.034634,67.437213 V 60.086335 C 70.03437,46.52546 59.001774,35.492663 45.44082,35.492663 31.879866,35.492663 20.84727,46.52546 20.84727,60.086335 V 67.62983 C 19.521973,69.131864 18.801248,70.980762 18.801248,72.94105 18.801248,75.399278 19.867518,77.726003 21.727275,79.325144 23.149939,80.548828 24.89222,81.249715 26.770497,81.382262 27.431691,86.431285 30.120652,90.937368 34.209787,93.907303 V 99.177773 L 10.510794,108.36542 C 10.498354,108.37042 10.485924,108.37542 10.473484,108.38022 10.0457,108.55618 1.3851e-7,112.821 1.3851e-7,124.55368 V 165.89351 C 1.3851e-7,168.68618 2.2719772,170.95816 5.0646542,170.95816 H 23.970985 C 25.066889,170.95816 25.95536,170.06969 25.95536,168.97379 25.95536,167.87788 25.066889,166.98941 23.970985,166.98941 H 19.701404 V 127.91151 C 19.701404,126.81561 18.812933,125.92714 17.717029,125.92714 16.621125,125.92714 15.732654,126.81561 15.732654,127.91151 V 166.98994 H 5.0649188 C 4.4608751,166.98994 3.9692793,166.49834 3.9692793,165.8943 V 124.55395 C 3.9692793,115.61923 11.508052,112.25453 11.971073,112.05662 L 26.214652,106.53477 32.472577,119.07655 C 33.071329,120.2759 34.287089,121.00007 35.583018,121.00007 36.853283,121.00007 37.527441,120.40502 38.424114,119.76817 L 40.022462,122.17429 34.090239,157.22311 C 34.086839,157.24301 34.083939,157.26281 34.080939,157.28291 33.937535,158.32113 34.258474,159.3882 34.939247,160.1375 L 41.168333,166.99021 H 33.232156 C 32.136251,166.99021 31.247781,167.87868 31.247781,168.97458 31.247781,170.07048 32.136251,170.95895 33.232156,170.95895 H 86.245394 C 89.038072,170.95895 91.310049,168.68671 91.310049,165.8943 V 147.23747 C 91.309519,146.1413 90.421049,145.25283 89.325144,145.25283 Z M 61.364283,105.09596 55.530485,116.7879 C 55.385493,116.68498 52.293837,114.48841 48.514529,111.80474 50.154416,109.78041 48.235922,112.14843 55.720456,102.91024 Z M 49.634775,117.46894 48.121887,119.74621 H 43.173385 L 41.660498,117.46894 45.647768,114.6371 Z M 38.178316,99.81806 V 96.104391 C 40.5892,97.076205 43.165712,97.526782 45.6819,97.526782 48.283547,97.526782 50.834924,96.972225 53.103991,95.980041 V 99.8342 L 45.647768,109.03772 Z M 68.112745,72.94131 C 68.112481,74.241204 67.549447,75.471248 66.567843,76.315522 65.91882,76.873789 65.13486,77.230706 64.276287,77.370406 V 68.513007 C 66.556995,68.883424 68.112745,70.775185 68.112745,72.94131 Z M 26.6065,77.370406 C 24.299862,76.996029 22.770042,75.088918 22.770042,72.94105 22.770042,70.819632 24.528727,69.092974 26.6065,68.612757 Z M 26.713127,64.569148 C 26.081037,64.641648 25.356608,64.812828 24.816594,64.996445 V 60.086335 C 24.816594,48.713818 34.068543,39.461652 45.441129,39.461652 56.813714,39.461652 66.065664,48.713818 66.065664,60.086335 V 64.860188 C 65.488872,64.684768 64.890649,64.568888 64.276551,64.514378 64.276551,62.5996 64.293221,62.968957 58.02921,56.234556 56.877214,54.996842 54.971685,54.737555 53.521504,55.685019 46.607941,60.201165 38.174348,62.46996 30.392952,61.911163 28.686125,61.783366 27.131433,62.907577 26.713127,64.569148 Z M 30.575514,78.932767 V 66.552459 65.900262 C 39.1414,66.401909 48.122152,63.857164 55.377291,59.210838 58.250137,62.295333 59.805887,63.913254 60.307537,64.528668 60.307537,66.085469 60.307537,77.150546 60.307537,78.932497 60.307537,86.988222 53.738991,93.557523 45.682164,93.557523 36.635002,93.557793 30.575514,86.539495 30.575514,78.932767 Z M 35.765316,116.7879 29.931519,105.09596 35.565291,102.91394 42.772806,111.81056 C 39.107533,114.41326 36.097898,116.55163 35.765316,116.7879 Z M 38.042056,157.65094 43.785895,123.71469 H 47.508847 L 53.252687,157.65094 45.647504,166.01786 Z"
       id="path283" />
    <path
       style="fill:#57792f;stroke-width:0.26311836"
       inkscape:connector-curvature="0"
       d="m 358.71125,138.76608 v -1.90711 c 0.44932,-0.43532 0.88136,-0.9121 1.29612,-1.40961 3.32088,-4.38609 5.41195,-9.91024 5.97943,-15.79585 2.98453,-0.54545 5.67463,-2.46396 7.50022,-5.34821 2.50583,-4.24952 2.73049,-10.36467 0.63942,-18.034538 -0.12292,-0.442306 -0.36637,-0.822178 -0.69127,-1.077928 l -0.95049,-0.76698 c 0.1402,-6.920498 -1.85366,-13.659613 -5.59923,-18.925908 -4.64875,-6.280987 -11.78605,-9.452585 -21.23909,-9.494035 -9.43575,0 -16.59033,3.213048 -21.23908,9.411124 -3.74557,5.266292 -5.73943,12.005399 -5.59924,18.925897 l -0.95048,0.766991 c -0.3249,0.255748 -0.56835,0.635611 -0.69127,1.077925 -2.09107,7.711322 -1.86641,13.785022 0.63942,18.034532 1.81867,2.90446 4.50877,4.845 7.50021,5.4104 0.56986,5.89494 2.66742,11.42686 5.99672,15.81658 0.41152,0.49647 0.84399,0.96704 1.29612,1.40961 v 1.90711 c -6.61885,1.53398 -33.04241,8.97586 -32.59309,30.11993 0,1.14478 0.77378,2.07294 1.72816,2.07294 h 87.84235 c 0.95438,0 1.72816,-0.92816 1.72816,-2.07294 0.44932,-21.14407 -25.97424,-28.58595 -32.59309,-30.11993 z m -34.44222,-23.75597 c -1.46851,-0.59157 -2.74842,-1.7138 -3.6637,-3.21306 l 0.0864,0.0207 c -1.72816,-3.02649 -1.8837,-7.60768 -0.34563,-13.660646 l 1.26155,-1.015735 c 0.53076,-0.424954 0.82304,-1.166032 0.76039,-1.927837 -0.29076,-6.195486 1.38923,-12.292764 4.7006,-17.060254 3.90564,-5.306719 10.17886,-7.960075 18.57771,-8.001536 8.39886,-0.04148 14.67208,2.694817 18.64685,8.001536 3.31137,4.76749 4.99135,10.864768 4.70059,17.060254 -0.0626,0.761805 0.22963,1.502883 0.76039,1.927837 l 1.26156,1.015735 c 1.53806,6.032236 1.43437,10.634156 -0.34563,13.660646 -0.92155,1.50055 -2.20708,2.62278 -3.68098,3.21305 2.08459,-2.84511 3.10312,-6.59246 2.8169,-10.36468 -0.32382,-2.26961 -1.31017,-4.32673 -2.78234,-5.804217 -0.74311,-20.729355 -12.85751,-23.051042 -18.07655,-23.051042 -1.10473,-0.004 -2.20816,0.09328 -3.30079,0.290208 -1.09241,-0.19719 -2.19606,-0.294097 -3.30078,-0.290208 -5.18448,0 -17.2816,2.280226 -18.07655,23.051042 -1.48168,1.465567 -2.48013,3.515697 -2.8169,5.783487 -0.28817,3.77248 0.73058,7.52087 2.8169,10.36468 z m 39.31563,-16.998076 c -7.25157,0.502685 -14.45778,-1.667422 -20.65151,-6.218814 -0.70098,-0.590521 -1.65687,-0.475738 -2.2466,0.269487 -3.45632,4.456809 -9.76411,5.493276 -12.80567,5.7213 0.93321,-14.655651 8.32973,-17.847972 14.55111,-17.847972 0.99023,-0.0086 1.97917,0.08861 2.95515,0.290207 0.22812,0.05595 0.46315,0.05595 0.69126,0 0.97598,-0.201076 1.96492,-0.298244 2.95516,-0.290207 6.16953,0 13.60061,3.275232 14.46469,18.055268 z m -35.09892,17.391926 0.0691,0.0207 c 0.004,-0.51098 -0.15013,-1.00564 -0.43204,-1.38888 -2.36757,-3.2545 -3.45631,-6.2188 -3.16253,-8.66486 0.14085,-1.36244 0.70185,-2.61216 1.57263,-3.50326 2.28117,0 10.36896,-0.51824 15.55343,-5.88714 5.83881,4.02642 12.44772,6.16906 19.18258,6.21881 1.15786,0 2.33301,0 3.56001,-0.22802 0.84701,0.86752 1.40024,2.07656 1.55534,3.39961 0.29379,2.4046 -0.79495,5.41036 -3.16253,8.66486 -0.28191,0.38324 -0.43571,0.8779 -0.43204,1.38888 0,0 0,0.41459 0,1.07793 l -10.05789,6.4676 c -1.99603,-2.26677 -5.14625,-2.16338 -7.03599,0.23087 -1.88974,2.39426 -1.80355,6.17298 0.19248,8.43975 1.99602,2.26677 5.14624,2.16338 7.03598,-0.23087 0.87575,-1.10955 1.36352,-2.57953 1.36287,-4.10729 0.008,-0.18657 0.008,-0.37313 0,-0.5597 l 7.93225,-5.09944 c -0.68089,4.08759 -2.28268,7.87305 -4.63146,10.94515 -3.0636,3.538 -7.21053,5.39874 -11.4577,5.14092 h -0.86408 c -4.2381,0.25237 -8.37596,-1.59929 -11.44042,-5.12019 -5.46098,-6.52978 -5.34001,-17.10181 -5.34001,-17.20546 z m 22.3451,11.89872 c 0,1.01886 -0.68867,1.84493 -1.53806,1.84493 -0.84939,0 -1.53806,-0.82607 -1.53806,-1.84493 0,-1.01885 0.68867,-1.84492 1.53806,-1.84492 0.84939,0 1.53806,0.82607 1.53806,1.84492 z m -6.91264,39.386 h -40.40437 c 1.36525,-15.56783 22.46608,-22.07689 29.06765,-23.75597 v 3.71057 c 0,4.70559 4.76972,8.29179 11.33672,8.89294 z m -7.8804,-20.0454 v -0.0622 -7.08947 c 2.87263,1.59798 6.01054,2.39192 9.17652,2.3217 h 0.86408 c 3.16599,0.0702 6.3039,-0.72372 9.17653,-2.3217 v 7.15167 c 0,1.9693 -3.75011,4.80923 -9.60857,4.80923 -5.85846,0 -9.60856,-2.83993 -9.60856,-4.80923 z m 11.33672,20.10759 v -11.23538 c 6.56701,-0.53897 11.33673,-4.1459 11.33673,-8.89294 v -3.62766 c 6.65342,1.65836 27.65056,8.16742 29.06765,23.75598 z"
       id="path421" />
    <g
       id="printer"
       style="opacity:0.10100002;"
       transform="translate(0,-126.04048)">
      <path
         style="opacity:1;fill:#57792f;stroke-width:0.83333331"
         inkscape:connector-curvature="0"
         d="M 210.1996,152.70772 C 212.4971,152.70772 214.36626,150.83855 214.36626,148.54105 214.36626,146.24355 212.4971,144.37438 210.1996,144.37438 207.9021,144.37438 206.03293,146.24355 206.03293,148.54105 206.03293,150.83855 207.9021,152.70772 210.1996,152.70772 Z M 210.1996,146.04105 C 211.57793,146.04105 212.6996,147.16272 212.6996,148.54105 212.6996,149.91938 211.57793,151.04105 210.1996,151.04105 208.82126,151.04105 207.6996,149.91938 207.6996,148.54105 207.6996,147.16272 208.82126,146.04105 210.1996,146.04105 Z"
         id="path484" />
      <path
         style="opacity:1;fill:#57792f;stroke-width:0.83333331"
         inkscape:connector-curvature="0"
         d="M 203.53293,161.87438 H 183.53293 C 183.0721,161.87438 182.6996,162.24688 182.6996,162.70772 182.6996,163.16855 183.0721,163.54105 183.53293,163.54105 H 203.53293 C 203.99376,163.54105 204.36626,163.16855 204.36626,162.70772 204.36626,162.24688 203.99376,161.87438 203.53293,161.87438 Z"
         id="path486" />
      <path
         style="opacity:1;fill:#57792f;stroke-width:0.83333331"
         inkscape:connector-curvature="0"
         d="M 203.53293,166.04105 H 183.53293 C 183.0721,166.04105 182.6996,166.41355 182.6996,166.87438 182.6996,167.33522 183.0721,167.70772 183.53293,167.70772 H 203.53293 C 203.99376,167.70772 204.36626,167.33522 204.36626,166.87438 204.36626,166.41355 203.99376,166.04105 203.53293,166.04105 Z"
         id="path488" />
      <path
         style="opacity:1;fill:#57792f;stroke-width:0.83333331"
         inkscape:connector-curvature="0"
         d="M 211.03293,140.20772 V 126.04105 H 176.03293 V 140.20772 H 168.53293 V 168.54105 H 173.53293 V 171.04105 H 176.03293 V 176.04105 H 211.03293 V 171.04105 H 213.53293 V 168.54105 H 218.53293 V 140.20772 Z M 177.6996,127.70772 H 209.36626 V 140.20772 H 177.6996 Z M 176.03293,141.87438 H 211.03293 216.86626 V 155.20772 H 170.1996 V 141.87438 Z M 175.1996,169.37438 V 167.70772 166.87438 163.54105 C 175.1996,163.08022 174.8271,162.70772 174.36626,162.70772 173.90543,162.70772 173.53293,163.08022 173.53293,163.54105 V 166.87438 H 170.1996 V 156.87438 H 176.03293 V 169.37438 Z M 209.36626,174.37438 H 177.6996 V 171.04105 156.87438 H 209.36626 V 171.04105 Z M 213.53293,166.87438 V 163.54105 C 213.53293,163.08022 213.16043,162.70772 212.6996,162.70772 212.23876,162.70772 211.86626,163.08022 211.86626,163.54105 V 166.87438 167.70772 169.37438 H 211.03293 V 156.87438 H 216.86626 V 166.87438 Z"
         id="path5463" />
    </g>
    <g
       id="pdftoprint"
       transform="translate(91.488488,-44.65686)">
      <path
         id="path5422"
         d="M 24.399072,170.95895 H 0.592714 C 0.265033,170.95895 0,170.69419 0,170.36624 v -34.51689 c 0,-0.32768 0.265033,-0.59272 0.592714,-0.59272 h 18.443878 c 0.16043,0 0.30698,0.0629 0.41838,0.17433 l 5.3554,5.3554 c 0.11168,0.11168 0.17433,0.26504 0.17433,0.41839 v 29.15468 c 0.007,0.33476 -0.25795,0.59952 -0.58563,0.59952 z M 1.192511,169.76671 h 22.613851 v -28.31082 l -5.00675,-5.00675 H 1.192511 Z m 0,0"
         inkscape:connector-curvature="0"
         style="opacity:1;fill:#57792f;stroke-width:0.06973109" />
      <path
         id="path574"
         d="m 24.399072,141.80455 h -5.3554 c -0.32768,0 -0.59272,-0.26504 -0.59272,-0.59272 v -5.36248 c 0,-0.23698 0.14628,-0.46006 0.36963,-0.55077 0.22309,-0.0907 0.48104,-0.042 0.64828,0.13238 l 5.35541,5.3554 c 0.16751,0.16752 0.22308,0.42547 0.13265,0.64856 -0.1046,0.22308 -0.32087,0.36963 -0.55785,0.36963 z m -4.76269,-1.19251 h 3.32612 l -3.32612,-3.32612 z m 0,0"
         inkscape:connector-curvature="0"
         style="opacity:1;fill:#57792f;stroke-width:0.06973109" />
      <path
         id="path576"
         d="M 24.399072,170.95895 H 0.592714 C 0.265033,170.95895 0,170.69419 0,170.36624 v -10.71053 c 0,-0.32769 0.265033,-0.59272 0.592714,-0.59272 h 23.799278 c 0.32768,0 0.59271,0.26503 0.59271,0.59272 v 10.71053 c 0.007,0.32795 -0.25795,0.59271 -0.58563,0.59271 z M 1.192511,169.76671 h 22.613851 v -9.51829 H 1.192511 Z m 0,0"
         inkscape:connector-curvature="0"
         style="opacity:1;fill:#57792f;stroke-width:0.06973109" />
      <path
         id="path578"
         d="m 4.162892,168.58129 c -0.327682,0 -0.592715,-0.26504 -0.592715,-0.59272 v -5.9552 c 0,-0.32768 0.265033,-0.59271 0.592715,-0.59271 0.327954,0 0.59271,0.26503 0.59271,0.59271 v 5.94812 c 0.007,0.32768 -0.264756,0.5998 -0.59271,0.5998 z m 0,0"
         inkscape:connector-curvature="0"
         style="opacity:1;fill:#57792f;stroke-width:0.06973109" />
      <path
         id="path580"
         d="m 20.828622,162.62609 h -3.57018 c -0.32768,0 -0.59271,-0.26476 -0.59271,-0.59272 0,-0.32768 0.26503,-0.59271 0.59271,-0.59271 h 3.57018 c 0.32795,0 0.59271,0.26503 0.59271,0.59271 0,0.32796 -0.26476,0.59272 -0.59271,0.59272 z m 0,0"
         inkscape:connector-curvature="0"
         style="opacity:1;fill:#57792f;stroke-width:0.06973109" />
      <path
         id="path582"
         d="m 20.828622,165.60382 h -3.57018 c -0.32768,0 -0.59271,-0.26503 -0.59271,-0.59271 0,-0.32796 0.26503,-0.59272 0.59271,-0.59272 h 3.57018 c 0.32795,0 0.59271,0.26476 0.59271,0.59272 0,0.32768 -0.26476,0.59271 -0.59271,0.59271 z m 0,0"
         inkscape:connector-curvature="0"
         style="opacity:1;fill:#57792f;stroke-width:0.06973109" />
      <path
         id="path584"
         d="m 17.258442,168.58129 c -0.32768,0 -0.59271,-0.26504 -0.59271,-0.59272 v -5.9552 c 0,-0.32768 0.26503,-0.59271 0.59271,-0.59271 0.32768,0 0.59272,0.26503 0.59272,0.59271 v 5.94812 c 0,0.32768 -0.26504,0.5998 -0.59272,0.5998 z m 0,0"
         inkscape:connector-curvature="0"
         style="opacity:1;fill:#57792f;stroke-width:0.06973109" />
      <path
         id="path586"
         d="m 19.531782,150.67429 c -0.23016,-0.43936 -0.79509,-0.65537 -1.7223,-0.65537 -0.54396,0 -1.21348,0.0697 -1.99442,0.2092 -1.08791,-1.13667 -2.2175,-2.79633 -3.01941,-4.42793 0.12557,-0.52298 0.24406,-1.05305 0.33477,-1.58311 0.10459,-0.6205 0.23016,-1.3317 0.0975,-1.95928 -0.0556,-0.25114 -0.20211,-0.47423 -0.36936,-0.66245 -0.14654,-0.16043 -0.34865,-0.38352 -0.5859,-0.38352 -0.12557,0 -0.46714,0.0558 -0.59952,0.0975 -0.34185,0.11168 -0.52299,0.37671 -0.66953,0.7112 -0.41839,0.96943 0.15335,2.61492 0.74607,3.89105 -0.50909,1.98733 -1.35268,4.36527 -2.24529,6.29677 -2.24529,1.01818 -3.4378,2.01512 -3.5492,2.97065 -0.0419,0.34866 0.0417,0.85748 0.66244,1.31073 0.16725,0.12557 0.36936,0.18849 0.57174,0.18849 0.5159,0 1.04597,-0.3906 1.65257,-1.23446 0.43936,-0.61341 0.9204,-1.45018 1.4156,-2.48934 1.58992,-0.68342 3.5492,-1.30392 5.23664,-1.65257 0.93456,0.88553 1.77814,1.33878 2.49643,1.33878 0.53006,0 0.98332,-0.24406 1.31808,-0.69731 0.34157,-0.47423 0.41839,-0.89942 0.22308,-1.26905 z m -12.32851,5.01355 c -0.27892,-0.20919 -0.25795,-0.34865 -0.25795,-0.40422 0.0349,-0.32795 0.55077,-0.9065 1.81982,-1.60381 -0.95526,1.75008 -1.47116,1.98025 -1.56187,2.00803 z m 4.86729,-13.42323 c 0.0278,-0.007 0.6205,0.64174 0.0558,1.88274 -0.84386,-0.85067 -0.11876,-1.86177 -0.0558,-1.88274 z m -1.22738,9.38591 c 0.5998,-1.41559 1.16446,-2.97746 1.58284,-4.42792 0.66245,1.17834 1.46436,2.32891 2.26626,3.24958 -1.26197,0.28573 -2.60783,0.70412 -3.8491,1.17834 z m 7.64945,-0.27892 c -0.18114,0.25114 -0.57855,0.25795 -0.71801,0.25795 -0.31379,0 -0.43255,-0.18822 -0.92067,-0.55077 0.39768,-0.0488 0.77412,-0.0629 1.07402,-0.0629 0.52979,0 0.62758,0.0768 0.69731,0.11876 -0.007,0.0349 -0.0419,0.11141 -0.13265,0.23698 z m 0,0"
         inkscape:connector-curvature="0"
         style="opacity:1;fill:#57792f;stroke-width:0.06973109" />
      <path
         id="path588"
         d="m 5.948112,166.19654 h -1.78522 c -0.327682,0 -0.592715,-0.26504 -0.592715,-0.59272 v -3.57045 c 0,-0.32768 0.265033,-0.59271 0.592715,-0.59271 h 1.78522 c 1.311,0 2.37794,1.06694 2.37794,2.37794 0.007,1.311 -1.06013,2.37794 -2.37794,2.37794 z m -1.18542,-1.18543 h 1.19251 c 0.65536,0 1.19223,-0.53715 1.19223,-1.19251 0,-0.65537 -0.53687,-1.19251 -1.19223,-1.19251 h -1.19251 z m 0,0"
         inkscape:connector-curvature="0"
         style="opacity:1;fill:#57792f;stroke-width:0.06973109" />
      <path
         id="path590"
         d="m 11.303522,168.58129 h -0.59272 c -0.32768,0 -0.59271,-0.26504 -0.59271,-0.59272 v -5.9552 c 0,-0.32768 0.26503,-0.59271 0.59271,-0.59271 h 0.59272 c 1.96636,0 3.57017,1.60381 3.57017,3.57045 0,1.96636 -1.59673,3.57018 -3.57017,3.57018 z m 0,-5.9552 v 4.76268 c 1.311,0 2.37766,-1.06694 2.37766,-2.37766 0,-1.311 -1.05985,-2.38502 -2.37766,-2.38502 z m 0,0"
         inkscape:connector-curvature="0"
         style="opacity:1;fill:#57792f;stroke-width:0.06973109" />
    </g>
    <g
       id="letter"
       transform="translate(179.5746,-134.08338)">
      <path
         style="opacity:1;fill:#57792f;stroke-width:0.52083331"
         inkscape:connector-curvature="0"
         d="M 20.3125,152.72978 H 7.29167 c -0.2875,0 -0.52084,0.23282 -0.52084,0.52084 0,0.28802 0.23334,0.52083 0.52084,0.52083 H 20.3125 c 0.2875,0 0.52083,-0.23281 0.52083,-0.52083 0,-0.28802 -0.23333,-0.52084 -0.52083,-0.52084 z"
         id="path346-7" />
      <path
         style="opacity:1;fill:#57792f;stroke-width:0.52083331"
         inkscape:connector-curvature="0"
         d="M 7.29167,149.60478 H 12.5 c 0.2875,0 0.52083,-0.23281 0.52083,-0.52083 0,-0.28802 -0.23333,-0.52083 -0.52083,-0.52083 H 7.29167 c -0.2875,0 -0.52084,0.23281 -0.52084,0.52083 0,0.28802 0.23334,0.52083 0.52084,0.52083 z"
         id="path348-5" />
      <path
         style="opacity:1;fill:#57792f;stroke-width:0.52083331"
         inkscape:connector-curvature="0"
         d="M 20.3125,156.89645 H 7.29167 c -0.2875,0 -0.52084,0.23281 -0.52084,0.52083 0,0.28802 0.23334,0.52084 0.52084,0.52084 H 20.3125 c 0.2875,0 0.52083,-0.23282 0.52083,-0.52084 0,-0.28802 -0.23333,-0.52083 -0.52083,-0.52083 z"
         id="path350-3" />
      <path
         style="opacity:1;fill:#57792f;stroke-width:0.52083331"
         inkscape:connector-curvature="0"
         d="M 20.3125,161.06312 H 7.29167 c -0.2875,0 -0.52084,0.23281 -0.52084,0.52083 0,0.28802 0.23334,0.52083 0.52084,0.52083 H 20.3125 c 0.2875,0 0.52083,-0.23281 0.52083,-0.52083 0,-0.28802 -0.23333,-0.52083 -0.52083,-0.52083 z"
         id="path352-5" />
      <path
         style="opacity:1;fill:#57792f;stroke-width:0.52083331"
         inkscape:connector-curvature="0"
         d="M 20.3125,165.22978 H 7.29167 c -0.2875,0 -0.52084,0.23282 -0.52084,0.52084 0,0.28802 0.23334,0.52083 0.52084,0.52083 H 20.3125 c 0.2875,0 0.52083,-0.23281 0.52083,-0.52083 0,-0.28802 -0.23333,-0.52084 -0.52083,-0.52084 z"
         id="path354-6" />
      <path
         style="opacity:1;fill:#57792f;stroke-width:0.52083331"
         d="m 22.39583,147.30582 v -7.59687 H 0 v 28.64583 h 2.60417 v 2.60417 H 25 v -21.04896 z m -4.6875,-3.21458 4.6875,4.6875 0.82604,0.82604 H 17.70833 Z M 1.04167,167.31312 v -26.5625 h 20.3125 v 5.51354 l -3.95105,-3.95104 H 2.60417 v 25 z m 2.60416,2.60416 v -1.5625 -25 h 13.02084 v 7.29167 h 7.29166 v 19.27083 z"
         id="path5441"
         inkscape:connector-curvature="0" />
    </g>
    <g
       id="edocument"
       transform="translate(94.891255,-3.82871)">
      <path
         id="path5455"
         d="M 24.399075,170.95895 H 0.592714 C 0.265033,170.95895 0,170.69419 0,170.36624 v -34.51689 c 0,-0.32768 0.265033,-0.59272 0.592714,-0.59272 h 18.443871 c 0.16044,0 0.30698,0.0629 0.41839,0.17433 l 5.3554,5.3554 c 0.11168,0.11168 0.17433,0.26504 0.17433,0.41839 v 29.15468 c 0.007,0.33476 -0.25795,0.59952 -0.58563,0.59952 z M 1.192511,169.76671 h 22.613844 v -28.31082 l -5.00674,-5.00675 H 1.192511 Z m 0,0"
         inkscape:connector-curvature="0"
         style="opacity:1;fill:#57792f;stroke-width:0.06973109" />
      <path
         id="path574-0"
         d="m 24.399075,141.80455 h -5.35541 c -0.32768,0 -0.59271,-0.26504 -0.59271,-0.59272 v -5.36248 c 0,-0.23698 0.14627,-0.46006 0.36963,-0.55077 0.22308,-0.0907 0.48103,-0.0419 0.64828,0.13238 l 5.3554,5.3554 c 0.16752,0.16752 0.22309,0.42547 0.13266,0.64856 -0.1046,0.22308 -0.32088,0.36963 -0.55785,0.36963 z m -4.76269,-1.19251 h 3.32612 l -3.32612,-3.32612 z m 0,0"
         inkscape:connector-curvature="0"
         style="opacity:1;fill:#57792f;stroke-width:0.06973109" />
      <path
         id="path576-2"
         d="M 24.399075,170.95895 H 0.592714 C 0.265033,170.95895 0,170.69419 0,170.36624 v -10.71053 c 0,-0.32769 0.265033,-0.59272 0.592714,-0.59272 h 23.799271 c 0.32769,0 0.59272,0.26503 0.59272,0.59272 v 10.71053 c 0.007,0.32795 -0.25795,0.59271 -0.58563,0.59271 z M 1.192511,169.76671 h 22.613844 v -9.51829 H 1.192511 Z m 0,0"
         inkscape:connector-curvature="0"
         style="opacity:1;fill:#57792f;stroke-width:0.06973109" />
      <path
         id="path578-3"
         d="m 4.162892,168.58129 c -0.327682,0 -0.592715,-0.26504 -0.592715,-0.59272 v -5.9552 c 0,-0.32768 0.265033,-0.59271 0.592715,-0.59271 0.327954,0 0.592713,0.26503 0.592713,0.59271 v 5.94812 c 0.007,0.32768 -0.264759,0.5998 -0.592713,0.5998 z m 0,0"
         inkscape:connector-curvature="0"
         style="opacity:1;fill:#57792f;stroke-width:0.06973109" />
      <path
         id="path580-7"
         d="m 20.828625,162.62609 h -3.57018 c -0.32768,0 -0.59271,-0.26476 -0.59271,-0.59272 0,-0.32768 0.26503,-0.59271 0.59271,-0.59271 h 3.57018 c 0.32795,0 0.59271,0.26503 0.59271,0.59271 0,0.32796 -0.26476,0.59272 -0.59271,0.59272 z m 0,0"
         inkscape:connector-curvature="0"
         style="opacity:1;fill:#57792f;stroke-width:0.06973109" />
      <path
         id="path582-5"
         d="m 20.828625,165.60382 h -3.57018 c -0.32768,0 -0.59271,-0.26503 -0.59271,-0.59271 0,-0.32796 0.26503,-0.59272 0.59271,-0.59272 h 3.57018 c 0.32795,0 0.59271,0.26476 0.59271,0.59272 0,0.32768 -0.26476,0.59271 -0.59271,0.59271 z m 0,0"
         inkscape:connector-curvature="0"
         style="opacity:1;fill:#57792f;stroke-width:0.06973109" />
      <path
         id="path584-9"
         d="m 17.258445,168.58129 c -0.32768,0 -0.59271,-0.26504 -0.59271,-0.59272 v -5.9552 c 0,-0.32768 0.26503,-0.59271 0.59271,-0.59271 0.32768,0 0.59271,0.26503 0.59271,0.59271 v 5.94812 c 0,0.32768 -0.26503,0.5998 -0.59271,0.5998 z m 0,0"
         inkscape:connector-curvature="0"
         style="opacity:1;fill:#57792f;stroke-width:0.06973109" />
      <path
         id="path586-2"
         d="m 19.531785,150.67429 c -0.23017,-0.43936 -0.7951,-0.65537 -1.7223,-0.65537 -0.54396,0 -1.21349,0.0697 -1.99442,0.2092 -1.08791,-1.13667 -2.2175,-2.79633 -3.01941,-4.42793 0.12557,-0.52298 0.24406,-1.05305 0.33476,-1.58311 0.1046,-0.6205 0.23017,-1.3317 0.0975,-1.95928 -0.0556,-0.25114 -0.20211,-0.47423 -0.36936,-0.66245 -0.14654,-0.16043 -0.34865,-0.38352 -0.5859,-0.38352 -0.12557,0 -0.46715,0.0558 -0.59953,0.0975 -0.34184,0.11168 -0.52298,0.37671 -0.66952,0.7112 -0.41839,0.96943 0.15335,2.61492 0.74606,3.89105 -0.50909,1.98733 -1.35267,4.36527 -2.24528,6.29677 -2.24529,1.01818 -3.4378,2.01512 -3.54921,2.97065 -0.0419,0.34866 0.0417,0.85748 0.66245,1.31073 0.16724,0.12557 0.36936,0.18849 0.57174,0.18849 0.5159,0 1.04597,-0.3906 1.65257,-1.23446 0.43936,-0.61341 0.9204,-1.45018 1.4156,-2.48934 1.58992,-0.68342 3.5492,-1.30392 5.23664,-1.65257 0.93456,0.88553 1.77814,1.33878 2.49643,1.33878 0.53006,0 0.98331,-0.24406 1.31808,-0.69731 0.34157,-0.47423 0.41838,-0.89942 0.22308,-1.26905 z m -12.32851,5.01355 c -0.27892,-0.20919 -0.25795,-0.34865 -0.25795,-0.40422 0.0349,-0.32795 0.55077,-0.9065 1.81982,-1.60381 -0.95526,1.75008 -1.47116,1.98025 -1.56187,2.00803 z m 4.86729,-13.42323 c 0.0278,-0.007 0.62049,0.64174 0.0558,1.88274 -0.84386,-0.85067 -0.11877,-1.86177 -0.0558,-1.88274 z m -1.22738,9.38591 c 0.5998,-1.41559 1.16445,-2.97746 1.58284,-4.42792 0.66245,1.17834 1.46435,2.32891 2.26626,3.24958 -1.26197,0.28573 -2.60783,0.70412 -3.8491,1.17834 z m 7.64945,-0.27892 c -0.18114,0.25114 -0.57855,0.25795 -0.71802,0.25795 -0.31379,0 -0.43255,-0.18822 -0.92067,-0.55077 0.39769,-0.0488 0.77413,-0.0629 1.07403,-0.0629 0.52979,0 0.62758,0.0768 0.69731,0.11876 -0.007,0.0349 -0.0419,0.11141 -0.13265,0.23698 z m 0,0"
         inkscape:connector-curvature="0"
         style="opacity:1;fill:#57792f;stroke-width:0.06973109" />
      <path
         id="path588-2"
         d="M 5.948115,166.19654 H 4.162892 c -0.327682,0 -0.592715,-0.26504 -0.592715,-0.59272 v -3.57045 c 0,-0.32768 0.265033,-0.59271 0.592715,-0.59271 h 1.785223 c 1.311,0 2.37794,1.06694 2.37794,2.37794 0.007,1.311 -1.06013,2.37794 -2.37794,2.37794 z m -1.18543,-1.18543 h 1.19251 c 0.65537,0 1.19224,-0.53715 1.19224,-1.19251 0,-0.65537 -0.53687,-1.19251 -1.19224,-1.19251 h -1.19251 z m 0,0"
         inkscape:connector-curvature="0"
         style="opacity:1;fill:#57792f;stroke-width:0.06973109" />
      <path
         id="path590-8"
         d="m 11.303515,168.58129 h -0.59271 c -0.32768,0 -0.59272,-0.26504 -0.59272,-0.59272 v -5.9552 c 0,-0.32768 0.26504,-0.59271 0.59272,-0.59271 h 0.59271 c 1.96637,0 3.57018,1.60381 3.57018,3.57045 0,1.96636 -1.59673,3.57018 -3.57018,3.57018 z m 0,-5.9552 v 4.76268 c 1.311,0 2.37767,-1.06694 2.37767,-2.37766 0,-1.311 -1.05986,-2.38502 -2.37767,-2.38502 z m 0,0"
         inkscape:connector-curvature="0"
         style="opacity:1;fill:#57792f;stroke-width:0.06973109" />
    </g>
    <path
       style="fill:none;stroke:#000000;stroke-width:0.26458332px;stroke-linecap:butt;stroke-linejoin:miter"
       d="M 99.322163,-0.03839024 C 97.864798,-18.054634 100.51296,-36.986307 109.41415,-52.721543 c 7.65263,-13.715167 21.09612,-23.281833 35.78757,-26.867934 11.9554,-3.103134 24.46312,-3.143092 36.64894,-1.767973"
       id="firstP"
       inkscape:connector-curvature="0" />
    <path
       style="fill:none;stroke:#000000;stroke-width:0.26458332px;stroke-linecap:butt;stroke-linejoin:miter"
       d="m 184.58579,-80.808525 c 0,0 88.62201,-20.312375 88.19389,69.489687"
       id="secondP"
       inkscape:connector-curvature="0" />
    <path
       style="fill:none;stroke:#000000;stroke-width:0.26458332px;stroke-linecap:butt;stroke-linejoin:miter"
       d="m 105.73574,-10.39906 165.00698,-0.917107"
       id="thirdP"
       inkscape:connector-curvature="0" />
    <g
       id="cross"
       style="opacity:0">
      <path
         inkscape:connector-curvature="0"
         id="path5604"
         d="m 164.37076,50.153133 c -0.26727,-1.069078 62.2738,-49.71213077 62.2738,-49.71213077"
         style="fill:#ff0000;stroke:#e80000;stroke-width:2.16499996;stroke-linecap:butt;stroke-linejoin:miter;stroke-miterlimit:4;stroke-dasharray:none;stroke-opacity:1" />
      <path
         inkscape:connector-curvature="0"
         id="path5604-9"
         d="M 226.81122,49.664696 C 225.79206,50.124877 163.72434,0.99268116 163.72434,0.99268116"
         style="fill:#ff0000;stroke:#e80000;stroke-width:2.16499996;stroke-linecap:butt;stroke-linejoin:miter;stroke-miterlimit:4;stroke-dasharray:none;stroke-opacity:1" />
    </g>
  </g>
</svg>
