<?xml version="1.0" encoding="iso-8859-1"?>
<!-- Generator: Adobe Illustrator 16.0.0, SVG Export Plug-In . SVG Version: 6.00 Build 0)  -->
<!DOCTYPE svg PUBLIC "-//W3C//DTD SVG 1.1//EN" "http://www.w3.org/Graphics/SVG/1.1/DTD/svg11.dtd">
<svg xmlns="http://www.w3.org/2000/svg" xmlns:xlink="http://www.w3.org/1999/xlink" version="1.1" id="Capa_1" x="0px" y="0px" width="512px" height="512px" viewBox="0 0 430.461 430.462" style="enable-background:new 0 0 430.461 430.462;" xml:space="preserve">
<g>
	<path d="M28.187,379.929h126.679v-21.532H28.187V379.929z M128.898,366.161h17.338v6.014h-17.338V366.161z M87.098,198.15   c0-3.845,3.127-6.966,6.966-6.966s6.966,3.127,6.966,6.966c0,3.835-3.127,6.962-6.966,6.962S87.098,201.985,87.098,198.15z    M132.309,198.15c0-3.845,3.124-6.966,6.962-6.966c3.845,0,6.966,3.127,6.966,6.966c0,3.835-3.128,6.962-6.966,6.962   S132.309,201.985,132.309,198.15z M28.187,323.321h126.679v-21.543H28.187V323.321z M128.898,309.543h17.338v6.014h-17.338V309.543   z M0,415.493h181.157V161.189H0V415.493z M139.271,179.78c10.132,0,18.371,8.244,18.371,18.37c0,10.123-8.244,18.364-18.371,18.364   c-10.123,0-18.361-8.241-18.361-18.364C120.909,188.023,129.143,179.78,139.271,179.78z M94.064,179.78   c10.131,0,18.367,8.244,18.367,18.37c0,10.123-8.235,18.364-18.367,18.364c-10.132,0-18.367-8.241-18.367-18.364   C75.697,188.023,83.932,179.78,94.064,179.78z M16.783,232.983H166.27v44.341H16.783V232.983z M16.783,290.385H166.27v44.334   H16.783V290.385z M16.783,346.998H166.27v44.334H16.783V346.998z M28.187,265.92h126.679v-21.537H28.187V265.92z M128.898,251.351   h17.338v6.018h-17.338V251.351z M430.461,205.747c0,11.149-1.019,22.071-2.867,32.709l-3.328,15.537   c-21.428,81.902-96.05,142.526-184.576,142.526c-11.244,0-22.252-1.038-32.971-2.915V279.955c5.038,2.102,9.078,5.714,13.617,9.286   c6.665,5.261,16.815,0.952,24.603,1.215c19.525,0.651,22.878,21.714,24.231,36.953c0.994,11.185,11.325,20.41,8.48,32.104   c-1.275,5.237-4.001,10.501-8.382,13.754c31.035-5.473,59.167-19.35,81.981-39.221c-7.904-19.77-30.678-31.853-28.673-57.875   c4.665-44.324,55.769-25.326,84.553-40.419c1.751-9.75,2.703-19.765,2.703-30.005c0-63.699-35.209-119.3-87.163-148.46   c0.846,0.791,1.722,1.573,2.484,2.342c33.514,33.508,15.464,36.085,20.622,74.761c0,12.886,26.639,10.742,24.061,33.948   c-5.149,23.204-6.014,45.971-29.219,26.632c-23.196-19.335-38.661-3.861-46.397-6.443c-10.322-5.154-15.477-28.358-28.369-28.358   c-36.082,2.578-12.892,74.764-56.716,54.14c-0.859-0.447-1.62-0.964-2.426-1.45v-76.392h-24.37   c-0.845-29.236-3.138-59.182-28.47-77.554c-30.503,17.89-54.827,45.067-69.39,77.554H61.98   C89.766,65.435,158.918,14.969,239.675,14.969C344.88,14.975,430.461,100.551,430.461,205.747z" fill="#79a741"/>
</g>
<g>
</g>
<g>
</g>
<g>
</g>
<g>
</g>
<g>
</g>
<g>
</g>
<g>
</g>
<g>
</g>
<g>
</g>
<g>
</g>
<g>
</g>
<g>
</g>
<g>
</g>
<g>
</g>
<g>
</g>
</svg>
