<?xml version="1.0" encoding="iso-8859-1"?>
<!-- Generator: Adobe Illustrator 19.0.0, SVG Export Plug-In . SVG Version: 6.00 Build 0)  -->
<svg version="1.1" id="Capa_1" xmlns="http://www.w3.org/2000/svg" xmlns:xlink="http://www.w3.org/1999/xlink" x="0px" y="0px"
	 viewBox="0 0 512 512" style="enable-background:new 0 0 512 512;" xml:space="preserve">
<path style="fill:#7C899B;" d="M504,0H8C3.582,0,0,3.582,0,8v144c0,4.418,3.582,8,8,8h496c4.418,0,8-3.582,8-8V8
	C512,3.582,508.418,0,504,0z"/>
<path style="fill:#69788D;" d="M16,144V0H8C3.582,0,0,3.582,0,8v144c0,4.418,3.582,8,8,8h496c4.418,0,8-3.582,8-8v-8H16z"/>
<g>
	<path style="fill:#435670;" d="M48,128c-4.418,0-8-3.582-8-8V40c0-4.418,3.582-8,8-8s8,3.582,8,8v80C56,124.418,52.418,128,48,128z
		"/>
	<path style="fill:#435670;" d="M96,128c-4.418,0-8-3.582-8-8V40c0-4.418,3.582-8,8-8s8,3.582,8,8v80
		C104,124.418,100.418,128,96,128z"/>
	<path style="fill:#435670;" d="M144,128c-4.418,0-8-3.582-8-8V40c0-4.418,3.582-8,8-8s8,3.582,8,8v80
		C152,124.418,148.418,128,144,128z"/>
	<path style="fill:#435670;" d="M192,128c-4.418,0-8-3.582-8-8V40c0-4.418,3.582-8,8-8s8,3.582,8,8v80
		C200,124.418,196.418,128,192,128z"/>
	<path style="fill:#435670;" d="M240,128c-4.418,0-8-3.582-8-8V40c0-4.418,3.582-8,8-8s8,3.582,8,8v80
		C248,124.418,244.418,128,240,128z"/>
</g>
<path style="fill:#C7CCD4;" d="M304,48c-17.645,0-32,14.355-32,32s14.355,32,32,32s32-14.355,32-32S321.645,48,304,48z"/>
<path style="fill:#D9DDE2;" d="M304,64c-8.822,0-16,7.177-16,16s7.178,16,16,16s16-7.177,16-16S312.822,64,304,64z"/>
<path style="fill:#DB6B5E;" d="M448,48c-17.645,0-32,14.355-32,32s14.355,32,32,32s32-14.355,32-32S465.645,48,448,48z"/>
<path style="fill:#FF8C78;" d="M448,64c-8.822,0-16,7.177-16,16s7.178,16,16,16s16-7.177,16-16S456.822,64,448,64z"/>
<path style="fill:#F7C14D;" d="M376,48c-17.645,0-32,14.355-32,32s14.355,32,32,32s32-14.355,32-32S393.645,48,376,48z"/>
<path style="fill:#FFDB66;" d="M376,64c-8.822,0-16,7.177-16,16s7.178,16,16,16s16-7.177,16-16S384.822,64,376,64z"/>
<path style="fill:#7C899B;" d="M504,352H8c-4.418,0-8,3.582-8,8v144c0,4.418,3.582,8,8,8h496c4.418,0,8-3.582,8-8V360
	C512,355.582,508.418,352,504,352z"/>
<path style="fill:#69788D;" d="M16,496V352H8c-4.418,0-8,3.582-8,8v144c0,4.418,3.582,8,8,8h496c4.418,0,8-3.582,8-8v-8H16z"/>
<g>
	<path style="fill:#435670;" d="M48,480c-4.418,0-8-3.582-8-8v-80c0-4.418,3.582-8,8-8s8,3.582,8,8v80C56,476.418,52.418,480,48,480
		z"/>
	<path style="fill:#435670;" d="M96,480c-4.418,0-8-3.582-8-8v-80c0-4.418,3.582-8,8-8s8,3.582,8,8v80
		C104,476.418,100.418,480,96,480z"/>
	<path style="fill:#435670;" d="M144,480c-4.418,0-8-3.582-8-8v-80c0-4.418,3.582-8,8-8s8,3.582,8,8v80
		C152,476.418,148.418,480,144,480z"/>
	<path style="fill:#435670;" d="M192,480c-4.418,0-8-3.582-8-8v-80c0-4.418,3.582-8,8-8s8,3.582,8,8v80
		C200,476.418,196.418,480,192,480z"/>
	<path style="fill:#435670;" d="M240,480c-4.418,0-8-3.582-8-8v-80c0-4.418,3.582-8,8-8s8,3.582,8,8v80
		C248,476.418,244.418,480,240,480z"/>
</g>
<path style="fill:#C7CCD4;" d="M304,400c-17.645,0-32,14.355-32,32s14.355,32,32,32s32-14.355,32-32S321.645,400,304,400z"/>
<path style="fill:#D9DDE2;" d="M304,416c-8.822,0-16,7.177-16,16s7.178,16,16,16s16-7.177,16-16S312.822,416,304,416z"/>
<path style="fill:#DB6B5E;" d="M448,400c-17.645,0-32,14.355-32,32s14.355,32,32,32s32-14.355,32-32S465.645,400,448,400z"/>
<path style="fill:#FF8C78;" d="M448,416c-8.822,0-16,7.177-16,16s7.178,16,16,16s16-7.177,16-16S456.822,416,448,416z"/>
<path style="fill:#F7C14D;" d="M376,400c-17.645,0-32,14.355-32,32s14.355,32,32,32s32-14.355,32-32S393.645,400,376,400z"/>
<path style="fill:#FFDB66;" d="M376,416c-8.822,0-16,7.177-16,16s7.178,16,16,16s16-7.177,16-16S384.822,416,376,416z"/>
<path style="fill:#59AD57;" d="M223.503,285.225c-1.161-3.14-4.155-5.225-7.503-5.225h-24V176c0-4.418-3.582-8-8-8h-48
	c-4.418,0-8,3.582-8,8v104h-24c-3.208,0-6.18,1.991-7.399,4.958c-1.297,3.158-0.4,6.894,2.193,9.116l56,48
	c2.959,2.536,7.453,2.536,10.412,0l56-48C223.748,291.896,224.665,288.364,223.503,285.225z"/>
<path style="fill:#7EC97D;" d="M413.206,217.926l-56-48c-2.996-2.567-7.416-2.567-10.412,0l-56,48
	c-2.495,2.138-3.432,5.762-2.299,8.844c1.136,3.088,4.215,5.23,7.505,5.23h24v104c0,4.418,3.582,8,8,8h48c4.418,0,8-3.582,8-8V232
	h24c3.289,0,6.369-2.142,7.505-5.23C416.638,223.687,415.701,220.064,413.206,217.926z"/>
<g>
</g>
<g>
</g>
<g>
</g>
<g>
</g>
<g>
</g>
<g>
</g>
<g>
</g>
<g>
</g>
<g>
</g>
<g>
</g>
<g>
</g>
<g>
</g>
<g>
</g>
<g>
</g>
<g>
</g>
</svg>
