<?xml version="1.0" encoding="iso-8859-1"?>
<!-- Generator: Adobe Illustrator 19.0.0, SVG Export Plug-In . SVG Version: 6.00 Build 0)  -->
<svg version="1.1" id="Capa_1" xmlns="http://www.w3.org/2000/svg" xmlns:xlink="http://www.w3.org/1999/xlink" x="0px" y="0px"
	 viewBox="0 0 512.001 512.001" style="enable-background:new 0 0 512.001 512.001;" xml:space="preserve">
<g>
	<path style="fill:#84B5CB;" d="M511.999,193.892c0.292,38.862-30.957,70.611-69.818,70.936H69.817
		C31.08,264.213,0,232.634,0,193.892s31.08-70.32,69.817-70.936c2.522-0.031,5.042,0.127,7.54,0.473
		c-1.916-7.896-2.884-15.993-2.886-24.118c-0.209-26.132,9.972-51.276,28.303-69.901s43.311-29.204,69.442-29.41
		c38.733,0.124,73.711,23.185,89.088,58.735c17.012-13.542,38.114-20.911,59.857-20.902c50.622,0.343,92.714,39.057,97.28,89.474
		c7.577-2.901,15.625-4.376,23.738-4.35C481.042,123.281,512.291,155.031,511.999,193.892z"/>
	<g>
		<path style="fill:#547580;" d="M176.551,167.725c-4.875,0-8.828-3.952-8.828-8.828v-40.483l-25.487-25.487
			c-3.437-3.449-3.432-9.029,0.011-12.472c3.443-3.443,9.023-3.448,12.472-0.011l28.073,28.074c1.656,1.655,2.586,3.9,2.586,6.241
			v44.138C185.379,163.773,181.426,167.725,176.551,167.725z"/>
		<path style="fill:#547580;" d="M264.827,167.725c-4.875,0-8.828-3.952-8.828-8.828V136.07l-11.448-11.448
			c-3.447-3.447-3.447-9.036,0-12.483c3.447-3.447,9.036-3.447,12.483,0l14.034,14.035c1.655,1.655,2.586,3.9,2.586,6.241v26.483
			C273.654,163.773,269.702,167.725,264.827,167.725z"/>
		<path style="fill:#547580;" d="M326.62,167.725c-4.875,0-8.828-3.952-8.828-8.828v-26.483c0.001-2.341,0.931-4.586,2.586-6.241
			l14.034-14.034c3.447-3.447,9.036-3.447,12.483,0c3.447,3.447,3.447,9.036,0,12.483l-11.449,11.448v22.828
			C335.448,163.773,331.495,167.725,326.62,167.725z"/>
	</g>
	<g>
		<path style="fill:#7F8C8D;" d="M141.241,459.035h52.966v44.138c0,4.875-3.952,8.828-8.828,8.828h-35.31
			c-4.875,0-8.828-3.952-8.828-8.828V459.035z"/>
		<path style="fill:#7F8C8D;" d="M317.792,459.035h52.966v44.138c0,4.875-3.952,8.828-8.828,8.828h-35.31
			c-4.875,0-8.828-3.952-8.828-8.828V459.035z"/>
	</g>
	<path style="fill:#BDC3C7;" d="M132.413,158.897h247.172c9.751,0,17.655,7.904,17.655,17.655v70.621
		c0,9.751-7.905,17.655-17.655,17.655H132.413c-9.751,0-17.655-7.904-17.655-17.655v-70.621
		C114.758,166.802,122.662,158.897,132.413,158.897z"/>
	<path style="fill:#A5A5A4;" d="M132.413,264.828h247.172c9.751,0,17.655,7.904,17.655,17.655v70.621
		c0,9.751-7.905,17.655-17.655,17.655H132.413c-9.751,0-17.655-7.905-17.655-17.655v-70.621
		C114.758,272.733,122.662,264.828,132.413,264.828z"/>
	<path style="fill:#BDC3C7;" d="M132.413,370.759h247.172c9.751,0,17.655,7.904,17.655,17.655v70.621
		c0,9.751-7.905,17.655-17.655,17.655H132.413c-9.751,0-17.655-7.905-17.655-17.655v-70.621
		C114.758,378.664,122.662,370.759,132.413,370.759z"/>
	<g>
		<path style="fill:#E6E7E8;" d="M150.068,238.345c-4.875,0-8.828-3.952-8.828-8.828v-35.31c0-4.875,3.952-8.828,8.828-8.828
			s8.828,3.952,8.828,8.828v35.31C158.896,234.393,154.944,238.345,150.068,238.345z"/>
		<path style="fill:#E6E7E8;" d="M185.379,238.345c-4.875,0-8.828-3.952-8.828-8.828v-35.31c0-4.875,3.952-8.828,8.828-8.828
			s8.828,3.952,8.828,8.828v35.31C194.206,234.393,190.254,238.345,185.379,238.345z"/>
		<path style="fill:#E6E7E8;" d="M220.689,238.345c-4.875,0-8.828-3.952-8.828-8.828v-35.31c0-4.875,3.952-8.828,8.828-8.828
			s8.828,3.952,8.828,8.828v35.31C229.516,234.393,225.564,238.345,220.689,238.345z"/>
		<path style="fill:#E6E7E8;" d="M255.999,238.345c-4.875,0-8.828-3.952-8.828-8.828v-35.31c0-4.875,3.952-8.828,8.828-8.828
			c4.875,0,8.828,3.952,8.828,8.828v35.31C264.827,234.393,260.875,238.345,255.999,238.345z"/>
		<path style="fill:#E6E7E8;" d="M361.93,238.345H291.31c-4.875,0-8.828-3.952-8.828-8.828s3.952-8.828,8.828-8.828h70.621
			c4.875,0,8.828,3.952,8.828,8.828S366.806,238.345,361.93,238.345z"/>
		<path style="fill:#E6E7E8;" d="M150.068,344.277c-4.875,0-8.828-3.952-8.828-8.828v-35.31c0-4.875,3.952-8.828,8.828-8.828
			s8.828,3.952,8.828,8.828v35.31C158.896,340.324,154.944,344.277,150.068,344.277z"/>
		<path style="fill:#E6E7E8;" d="M185.379,344.277c-4.875,0-8.828-3.952-8.828-8.828v-35.31c0-4.875,3.952-8.828,8.828-8.828
			s8.828,3.952,8.828,8.828v35.31C194.206,340.324,190.254,344.277,185.379,344.277z"/>
		<path style="fill:#E6E7E8;" d="M220.689,344.277c-4.875,0-8.828-3.952-8.828-8.828v-35.31c0-4.875,3.952-8.828,8.828-8.828
			s8.828,3.952,8.828,8.828v35.31C229.516,340.324,225.564,344.277,220.689,344.277z"/>
		<path style="fill:#E6E7E8;" d="M255.999,344.277c-4.875,0-8.828-3.952-8.828-8.828v-35.31c0-4.875,3.952-8.828,8.828-8.828
			c4.875,0,8.828,3.952,8.828,8.828v35.31C264.827,340.324,260.875,344.277,255.999,344.277z"/>
		<path style="fill:#E6E7E8;" d="M361.93,344.277H291.31c-4.875,0-8.828-3.952-8.828-8.828s3.952-8.828,8.828-8.828h70.621
			c4.875,0,8.828,3.952,8.828,8.828S366.806,344.277,361.93,344.277z"/>
		<path style="fill:#E6E7E8;" d="M150.068,450.208c-4.875,0-8.828-3.952-8.828-8.828v-35.31c0-4.875,3.952-8.828,8.828-8.828
			s8.828,3.952,8.828,8.828v35.31C158.896,446.255,154.944,450.208,150.068,450.208z"/>
		<path style="fill:#E6E7E8;" d="M185.379,450.208c-4.875,0-8.828-3.952-8.828-8.828v-35.31c0-4.875,3.952-8.828,8.828-8.828
			s8.828,3.952,8.828,8.828v35.31C194.206,446.255,190.254,450.208,185.379,450.208z"/>
		<path style="fill:#E6E7E8;" d="M220.689,450.208c-4.875,0-8.828-3.952-8.828-8.828v-35.31c0-4.875,3.952-8.828,8.828-8.828
			s8.828,3.952,8.828,8.828v35.31C229.516,446.255,225.564,450.208,220.689,450.208z"/>
		<path style="fill:#E6E7E8;" d="M255.999,450.208c-4.875,0-8.828-3.952-8.828-8.828v-35.31c0-4.875,3.952-8.828,8.828-8.828
			c4.875,0,8.828,3.952,8.828,8.828v35.31C264.827,446.255,260.875,450.208,255.999,450.208z"/>
		<path style="fill:#E6E7E8;" d="M361.93,450.208H291.31c-4.875,0-8.828-3.952-8.828-8.828s3.952-8.828,8.828-8.828h70.621
			c4.875,0,8.828,3.952,8.828,8.828S366.806,450.208,361.93,450.208z"/>
	</g>
</g>
<g>
</g>
<g>
</g>
<g>
</g>
<g>
</g>
<g>
</g>
<g>
</g>
<g>
</g>
<g>
</g>
<g>
</g>
<g>
</g>
<g>
</g>
<g>
</g>
<g>
</g>
<g>
</g>
<g>
</g>
</svg>
