<?xml version="1.0" encoding="iso-8859-1"?>
<!-- Generator: Adobe Illustrator 19.0.0, SVG Export Plug-In . SVG Version: 6.00 Build 0)  -->
<svg version="1.1" id="Layer_1" xmlns="http://www.w3.org/2000/svg" xmlns:xlink="http://www.w3.org/1999/xlink" x="0px" y="0px"
	 viewBox="0 0 393.289 393.289" style="enable-background:new 0 0 393.289 393.289;" xml:space="preserve">
<g>
	<g>
		<rect x="106.458" y="15.945" style="fill:#A88D63;" width="191.128" height="198.991"/>
		<rect x="95.704" y="15.945" style="fill:#CAA977;" width="191.126" height="198.991"/>
		<rect x="114.767" y="15.945" style="fill:#FFFFFF;" width="153" height="179.724"/>
		<g>
			<path style="fill:#5C6670;" d="M289.854,0c4.402,0,7.972,3.568,7.972,7.972c0,4.405-3.569,7.974-7.972,7.974H92.682
				c-4.403,0-7.974-3.568-7.974-7.974c0-4.403,3.57-7.972,7.974-7.972H289.854z"/>
			<path style="fill:#3E4A57;" d="M300.608,0c4.402,0,7.973,3.568,7.973,7.972c0,4.405-3.57,7.974-7.973,7.974H286.83
				c-4.403,0-7.972-3.568-7.972-7.974c0-4.403,3.568-7.972,7.972-7.972H300.608z"/>
		</g>
		<g>
			<path style="fill:#5C6670;" d="M289.854,214.936c4.402,0,7.972,3.57,7.972,7.974c0,4.402-3.569,7.973-7.972,7.973H92.682
				c-4.403,0-7.974-3.57-7.974-7.973s3.57-7.974,7.974-7.974H289.854z"/>
			<path style="fill:#3E4A57;" d="M300.608,214.936c4.402,0,7.973,3.57,7.973,7.974c0,4.402-3.57,7.973-7.973,7.973H286.83
				c-4.403,0-7.972-3.57-7.972-7.973s3.568-7.974,7.972-7.974H300.608z"/>
		</g>
	</g>
	<rect x="130.772" y="46.113" style="fill:#A4A9AD;" width="121.797" height="9.535"/>
	<rect x="130.772" y="67.892" style="fill:#A4A9AD;" width="87.113" height="9.535"/>
	<rect x="130.772" y="89.672" style="fill:#A4A9AD;" width="121.797" height="9.533"/>
	<rect x="130.772" y="111.45" style="fill:#A4A9AD;" width="87.113" height="9.533"/>
	<rect x="130.772" y="133.229" style="fill:#A4A9AD;" width="121.797" height="9.535"/>
	<rect x="130.772" y="155.007" style="fill:#A4A9AD;" width="87.113" height="9.536"/>
	<g>
		<path style="fill:#5C6670;" d="M211.214,393.289c-3.673,0-7.204-2.035-8.944-5.548l-17.635-35.611
			c-2.444-4.936-0.425-10.917,4.511-13.359c4.932-2.448,10.916-0.427,13.361,4.509l17.635,35.611
			c2.444,4.936,0.425,10.917-4.509,13.361C214.209,392.957,212.699,393.289,211.214,393.289z"/>
		<path style="fill:#3E4A57;" d="M254.884,374.904l-51.193-32.578V230.883h-20.242v111.443l-51.193,32.578
			c-4.646,2.957-6.016,9.12-3.059,13.765c1.901,2.987,5.126,4.62,8.421,4.62c1.832,0,3.685-0.505,5.344-1.561l50.607-32.205
			l50.608,32.205c1.658,1.056,3.512,1.561,5.344,1.561c3.294,0,6.521-1.633,8.421-4.62
			C260.899,384.024,259.53,377.861,254.884,374.904z"/>
	</g>
</g>
<g>
</g>
<g>
</g>
<g>
</g>
<g>
</g>
<g>
</g>
<g>
</g>
<g>
</g>
<g>
</g>
<g>
</g>
<g>
</g>
<g>
</g>
<g>
</g>
<g>
</g>
<g>
</g>
<g>
</g>
</svg>
