<?xml version="1.0" encoding="iso-8859-1"?>
<!-- Generator: Adobe Illustrator 19.0.0, SVG Export Plug-In . SVG Version: 6.00 Build 0)  -->
<svg xmlns="http://www.w3.org/2000/svg" xmlns:xlink="http://www.w3.org/1999/xlink" version="1.1" id="Capa_1" x="0px" y="0px" viewBox="0 0 512 512" style="enable-background:new 0 0 512 512;" xml:space="preserve" width="512px" height="512px">
<g>
	<g>
		<path d="M390.093,83.921c-4.164,0-7.54,3.375-7.54,7.54s3.376,7.54,7.54,7.54c19.739,0,35.796,16.059,35.796,35.796    c0,4.165,3.376,7.54,7.54,7.54c4.164,0,7.54-3.375,7.54-7.54C440.97,106.744,418.147,83.921,390.093,83.921z" fill="#79a741"/>
	</g>
</g>
<g>
	<g>
		<path d="M390.093,13.134c-4.164,0-7.54,3.375-7.54,7.54c0,4.165,3.376,7.54,7.54,7.54c58.771,0,106.585,47.814,106.585,106.585    c0,4.165,3.376,7.54,7.54,7.54s7.54-3.375,7.54-7.54C511.758,67.713,457.179,13.134,390.093,13.134z" fill="#79a741"/>
	</g>
</g>
<g>
	<g>
		<path d="M390.093,47.196c-4.164,0-7.54,3.375-7.54,7.54s3.376,7.54,7.54,7.54c39.989,0,72.523,32.533,72.523,72.523    c0,4.165,3.376,7.54,7.54,7.54s7.54-3.375,7.54-7.54C477.696,86.495,438.398,47.196,390.093,47.196z" fill="#79a741"/>
	</g>
</g>
<g>
	<g>
		<path d="M305.635,153.361h-29.718c-4.442,0-8.043,3.601-8.043,8.043s3.601,8.043,8.043,8.043h29.718    c4.442,0,8.043-3.601,8.043-8.043S310.077,153.361,305.635,153.361z" fill="#79a741"/>
	</g>
</g>
<g>
	<g>
		<circle cx="330.8" cy="161.404" r="5.992" fill="#79a741"/>
	</g>
</g>
<g>
	<g>
		<path d="M328.283,455.838h-43.859c-4.164,0-7.54,3.375-7.54,7.54s3.376,7.54,7.54,7.54h43.859c4.164,0,7.54-3.375,7.54-7.54    S332.447,455.838,328.283,455.838z" fill="#79a741"/>
	</g>
</g>
<g>
	<g>
		<path d="M392.942,364.923c-0.002-0.005-0.005-0.012-0.008-0.017c0.011,0.023,0.022,0.047,0.031,0.069    C392.959,364.961,392.95,364.94,392.942,364.923z" fill="#79a741"/>
	</g>
</g>
<g>
	<g>
		<g>
			<path d="M382.49,380.193c0.001,0.002,0.004,0.009,0.005,0.012c0.001,0.001,0.001,0.003,0.002,0.004     C382.495,380.203,382.492,380.198,382.49,380.193z" fill="#79a741"/>
			<path d="M510.575,446.4l-8.001-18.351c-1.385-3.177-3.594-5.83-6.372-7.773c1.809-5.136,1.763-10.94-0.58-16.316l-22.43-51.445     c-3.66-8.375-11.873-13.392-20.479-13.392c-2.976,0-5.992,0.603-8.888,1.86l-35.741,15.583V163.283     c0-19.585-15.935-35.53-35.53-35.53H240.156c-19.595,0-35.53,15.945-35.53,35.53v299.652c0,19.585,15.935,35.53,35.53,35.53     h132.398c16.191,0,29.874-10.891,34.142-25.722l6.941,15.919c2.784,6.387,9.043,10.204,15.604,10.204     c6.278,0,3.872-0.689,72.548-30.097c4.161-1.814,7.367-5.14,9.026-9.365C512.474,455.181,512.389,450.561,510.575,446.4z      M219.706,197.71L219.706,197.71h14.511c4.164,0,7.54-3.375,7.54-7.54s-3.376-7.54-7.54-7.54h-14.511v-19.346     c0-11.27,9.179-20.449,20.449-20.449h132.398c11.27,0,20.449,9.179,20.449,20.449v19.346H264.378c-4.164,0-7.54,3.375-7.54,7.54     s3.376,7.54,7.54,7.54h128.625v127.107l-10.587-24.28c-3.569-8.204-11.24-13.542-19.585-14.487     c-6.113-12.879-16.548-23.586-29.86-29.85c-3.76-1.779-8.264-0.161-10.034,3.609c-1.769,3.76-0.161,8.254,3.609,10.034     c9.058,4.263,16.368,11.24,21.123,19.675c-4.022,2.534-7.259,6.233-9.199,10.647c-2.684,6.113-2.704,13.11-0.05,19.203     l8.154,18.71c-14.614,23.347-39.867,22.086-40.225,22.199c-26.17,0-47.464-21.294-47.464-47.464     c0-16.689,8.516-31.84,22.772-40.547c3.559-2.172,4.675-6.816,2.513-10.365c-2.172-3.559-6.816-4.675-10.365-2.503     c-18.78,11.461-30,31.428-30,53.416c0,34.484,28.06,62.544,62.544,62.544c1.029-0.273,27.424,1.268,47.162-21.384l11.904,27.316     l-2.322-0.633c-12.416-3.499-25.527,3.69-29.226,16.066c-1.81,6.032-1.106,12.447,1.971,18.077     c6.474,11.799,18.192,12.211,21.656,13.711H219.706V197.71z M393.003,462.935c0,11.27-9.179,20.449-20.449,20.449H240.156     c-11.27,0-20.449-9.179-20.449-20.449V443.59h172.871l0.425,0.977V462.935z M409.27,441.611c-0.044-0.103-2.835-6.506-2.658-6.1     l-2.007-4.602c-0.281-0.41-1.855-6.238-8.405-8.099l-3.197-0.915l-38.124-10.858c-2.071-0.593-3.871-2.041-4.936-3.971     c-3.447-6.303,2.898-12.895,8.908-10.888l10.084,2.715c10.021,2.703,19.263-7.58,13.824-18.137     c-0.06-0.121-0.131-0.241-0.181-0.362c-0.041-0.093-0.065-0.149-0.082-0.189c-0.004-0.01-0.009-0.021-0.014-0.032     c0.003,0.007,0.005,0.011,0.009,0.02c-0.008-0.018-0.014-0.032-0.018-0.041c-0.001-0.002-0.002-0.004-0.003-0.006     c-0.676-1.548-5.089-11.674-28.675-65.775c-0.203-0.77-2.361-3.744-0.593-7.731c0.982-2.164,2.639-3.587,4.625-4.263     c3.831-1.317,8.154,0.704,9.843,4.584c20.209,46.345,24.461,56.095,25.202,57.793c0.002,0.005,0.005,0.012,0.01,0.023     c-0.002-0.004-0.003-0.007-0.005-0.01c0.006,0.014,0.011,0.025,0.016,0.038c0.003,0.007,0.007,0.015,0.01,0.023v-0.001     c0,0,0.001,0.002,0.001,0.003l-0.001-0.002c0.004,0.009,0.008,0.019,0.013,0.029c0.004,0.009,0.007,0.017,0.012,0.028     c-0.003-0.006-0.005-0.011-0.007-0.017c0.01,0.022,0.016,0.036,0.024,0.054c0.008,0.019,0.017,0.038,0.026,0.061     c-0.001-0.003-0.002-0.005-0.004-0.008c0.01,0.022,0.018,0.042,0.025,0.058v-0.001c0.004,0.01,0.008,0.018,0.013,0.029     c2.071,3.866,2.347,8.221,6.947,10.034c4.052,1.583,7.047-0.675,8.133-0.985l42.176-18.378c3.147-1.367,6.816,0.07,8.184,3.217     l22.43,51.445c1.377,3.147-0.07,6.816-3.217,8.184c-9.839,4.291,15.793-6.888-60.2,26.253     C414.311,446.203,410.637,444.756,409.27,441.611z M495.36,454.025l-65.78,28.68c-0.459,0.201-0.997-0.011-1.197-0.471     l-8.002-18.351c-0.36-0.827-0.17-1.573-0.024-1.946c0.147-0.371,0.515-1.048,1.342-1.409     c67.084-29.248,62.927-27.576,63.761-27.576c0.977,0,1.948,0.562,2.368,1.525l8.001,18.351     C496.032,453.293,495.82,453.826,495.36,454.025z" fill="#79a741"/>
		</g>
	</g>
</g>
<g>
	<g>
		<path d="M306.354,232.56c-4.164,0-7.54,3.375-7.54,7.54v68.283c0,4.164,3.376,7.54,7.54,7.54c4.164,0,7.54-3.375,7.54-7.54    v-68.283C313.894,235.935,310.518,232.56,306.354,232.56z" fill="#79a741"/>
	</g>
</g>
<g>
	<g>
		<path d="M209.157,13.802H20.83c-9.031,0-16.38,7.348-16.38,16.38c0,24.657,18.055,45.168,41.636,49.029    c2.328,35.998,32.334,64.576,68.904,64.576c36.576,0,66.586-28.579,68.915-64.576c23.579-3.864,41.632-24.373,41.632-49.03    C225.536,21.15,218.188,13.802,209.157,13.802z M114.989,128.707c-28.027,0-51.134-21.47-53.74-48.832h107.492    C166.135,107.237,143.022,128.707,114.989,128.707z M175.844,64.794H54.143c-19.085,0-34.612-15.527-34.612-34.613    c0-0.716,0.583-1.298,1.299-1.298h188.328c0.716,0,1.298,0.583,1.298,1.299C210.456,49.267,194.929,64.794,175.844,64.794z" fill="#79a741"/>
	</g>
</g>
<g>
	<g>
		<path d="M115.673,152.842c-4.164,0-7.54,3.375-7.54,7.54v20.397c0,4.165,3.376,7.54,7.54,7.54c4.164,0,7.54-3.375,7.54-7.54    v-20.397C123.213,156.217,119.837,152.842,115.673,152.842z" fill="#79a741"/>
	</g>
</g>
<g>
	<g>
		<path d="M158.678,171.849l-6.507-19.331c-1.328-3.947-5.605-6.066-9.551-4.741c-3.947,1.328-6.069,5.605-4.741,9.552l6.507,19.331    c1.322,3.927,5.583,6.074,9.551,4.741C157.884,180.073,160.006,175.796,158.678,171.849z" fill="#79a741"/>
	</g>
</g>
<g>
	<g>
		<path d="M190.039,150.688l-12.726-15.939c-2.598-3.254-7.342-3.785-10.598-1.188c-3.254,2.599-3.786,7.343-1.188,10.598    l12.726,15.939c2.598,3.254,7.342,3.785,10.598,1.188C192.105,158.687,192.637,153.943,190.039,150.688z" fill="#79a741"/>
	</g>
</g>
<g>
	<g>
		<path d="M212.271,120.082l-17.41-10.626c-3.555-2.171-8.194-1.047-10.364,2.507c-2.17,3.554-1.047,8.195,2.508,10.364    l17.41,10.626c1.227,0.749,2.582,1.106,3.921,1.106C215.916,134.058,218.765,124.045,212.271,120.082z" fill="#79a741"/>
	</g>
</g>
<g>
	<g>
		<path d="M222.694,83.714l-19.995-4.032c-4.088-0.822-8.059,1.821-8.881,5.902c-0.823,4.083,1.819,8.059,5.902,8.881    c21.186,4.219,20.139,4.181,21.493,4.181c3.516,0,6.662-2.472,7.383-6.051C229.419,88.513,226.777,84.537,222.694,83.714z" fill="#79a741"/>
	</g>
</g>
<g>
	<g>
		<path d="M35.165,87.074c-0.623-4.117-4.468-6.938-8.583-6.328l-20.168,3.05c-4.118,0.623-6.951,4.466-6.328,8.584    c0.617,4.079,4.417,6.949,8.583,6.328l20.168-3.05C32.955,95.035,35.788,91.192,35.165,87.074z" fill="#79a741"/>
	</g>
</g>
<g>
	<g>
		<path d="M44.979,113.272c-1.994-3.656-6.573-5.002-10.23-3.01l-17.908,9.764c-3.657,1.994-5.005,6.574-3.011,10.231    c1.984,3.637,6.556,5.012,10.23,3.01l17.908-9.764C45.624,121.508,46.973,116.928,44.979,113.272z" fill="#79a741"/>
	</g>
</g>
<g>
	<g>
		<path d="M63.162,134.533c-3.124-2.754-7.888-2.453-10.642,0.67l-13.488,15.301c-4.313,4.893-0.764,12.527,5.653,12.527    c2.09,0,4.168-0.863,5.659-2.554l13.488-15.301C66.586,142.052,66.286,137.287,63.162,134.533z" fill="#79a741"/>
	</g>
</g>
<g>
	<g>
		<path d="M87.521,148.294c-3.879-1.518-8.252,0.393-9.771,4.27l-7.441,18.991c-1.519,3.877,0.392,8.252,4.27,9.772    c3.887,1.52,8.255-0.398,9.771-4.27l7.441-18.991C93.309,154.188,91.397,149.813,87.521,148.294z" fill="#79a741"/>
	</g>
</g>
<g>
</g>
<g>
</g>
<g>
</g>
<g>
</g>
<g>
</g>
<g>
</g>
<g>
</g>
<g>
</g>
<g>
</g>
<g>
</g>
<g>
</g>
<g>
</g>
<g>
</g>
<g>
</g>
<g>
</g>
</svg>
