<svg height="512pt" viewBox="0 0 512 512" width="512pt" xmlns="http://www.w3.org/2000/svg"><g fill="#57565c"><path d="m64 96h96v32h-96zm0 0"/><path d="m352 96h96v32h-96zm0 0"/><path d="m64 192h96v32h-96zm0 0"/><path d="m352 192h96v32h-96zm0 0"/><path d="m64 288h96v32h-96zm0 0"/><path d="m352 288h96v32h-96zm0 0"/><path d="m64 384h96v32h-96zm0 0"/><path d="m352 384h96v32h-96zm0 0"/></g><path d="m384 48v416c0 26.398438-21.601562 48-48 48h-160c-26.398438 0-48-21.601562-48-48v-416c0-20.800781 13.441406-38.558594 32-45.121094 4.960938-1.917968 10.398438-2.878906 16-2.878906h160c5.601562 0 11.039062.960938 16 2.878906 18.558594 6.5625 32 24.320313 32 45.121094zm0 0" fill="#e76e54"/><path d="m0 96h32v32h-32zm0 0" fill="#57565c"/><path d="m480 96h32v32h-32zm0 0" fill="#57565c"/><path d="m0 192h32v32h-32zm0 0" fill="#57565c"/><path d="m480 192h32v32h-32zm0 0" fill="#57565c"/><path d="m0 288h32v32h-32zm0 0" fill="#57565c"/><path d="m480 288h32v32h-32zm0 0" fill="#57565c"/><path d="m0 384h32v32h-32zm0 0" fill="#57565c"/><path d="m480 384h32v32h-32zm0 0" fill="#57565c"/><path d="m352 2.878906v61.121094c0 52.960938-43.039062 96-96 96s-96-43.039062-96-96v-61.121094c4.960938-1.917968 10.398438-2.878906 16-2.878906h160c5.601562 0 11.039062.960938 16 2.878906zm0 0" fill="#dd523c"/><path d="m256 128c-35.296875 0-64-28.703125-64-64v-64h128v64c0 35.296875-28.703125 64-64 64zm0 0" fill="#ffcb5a"/><path d="m288 416h32v32h-32zm0 0" fill="#fff"/><path d="m336 480h-160c-26.398438 0-48-21.601562-48-48v32c0 26.398438 21.601562 48 48 48h160c26.398438 0 48-21.601562 48-48v-32c0 26.398438-21.601562 48-48 48zm0 0" fill="#dd523c"/></svg>