<?xml version="1.0" encoding="iso-8859-1"?>
<!-- Generator: Adobe Illustrator 19.0.0, SVG Export Plug-In . SVG Version: 6.00 Build 0)  -->
<svg version="1.1" id="Capa_1" xmlns="http://www.w3.org/2000/svg" xmlns:xlink="http://www.w3.org/1999/xlink" x="0px" y="0px"
	 viewBox="0 0 512 512" style="enable-background:new 0 0 512 512;" xml:space="preserve">
<path style="fill:#9BE6FF;" d="M511.999,255.385c0.323,135.457-105.666,247.315-239.134,256.063
	c-6.979,0.457-12.866-5.153-12.866-12.148v-19.301h-39.483v-30.001H103.323c0,4.728-5.499,7.36-9.161,4.368
	c-16.073-13.131-30.522-28.176-42.996-44.79c-2.961-3.944-0.108-9.581,4.823-9.581h49.706c5.523,0,10-4.224,10-9.434V82.734
	c-5.914-5.499-12.109-10.727-18.565-15.667c-4.847,0-7.034-6.086-3.286-9.159C137.997,21.721,194.46,0,256.001,0
	c61.087,0,117.176,21.397,161.183,57.105c0.289,0.235,2.697,7.076,5.649,9.731c2.601,2.339,12.543,6.519,12.855,6.827
	C482.66,119.956,511.83,184.264,511.999,255.385z"/>
<path style="fill:#3C5064;" d="M93.323,114.152h137.193v374.319H148.69c-19.979-9.238-38.573-20.963-55.366-34.8V114.152H93.323z"/>
<path style="fill:#46738C;" d="M275.281,497.083V507c0,1.958-1.136,3.635-2.775,4.456C267.047,511.804,261.547,512,256,512
	c-53.772,0-103.662-16.593-144.857-44.918h134.138C261.849,467.082,275.281,480.514,275.281,497.083z M417.132,57.067H94.867
	C84.173,65.741,74.191,75.26,65.024,85.521c-13.688,15.323-23.691,31.812-35.276,50.6c-0.652,1.057-1.158,2.199-1.725,3.306
	C10.109,174.387,0,214.007,0,255.991c0,57.816,19.173,111.149,51.495,154.006h374.202c5.523,0,10-4.477,10-10V73.675
	C429.783,67.845,423.587,62.303,417.132,57.067z"/>
<path style="fill:#415F78;" d="M176.92,393.995L176.92,393.995c0,2.762-2.239,5-5,5h-20c-2.761,0-5-2.239-5-5l0,0
	c0-2.762,2.239-5,5-5h20C174.681,388.995,176.92,391.234,176.92,393.995z"/>
<path style="fill:#E6FAFF;" d="M403.614,94.151v278.76c0,2.762-2.239,5-5,5H30.841c-4.269-7.868-8.135-15.986-11.574-24.325
	c-1.688-4.092,1.307-8.592,5.733-8.592l0,0c2.761,0,5-1.741,5-3.889V278.88c0-2.148-2.239-3.889-5-3.889H11.282
	c-5.998,0-10.955-4.742-11.148-10.736C0.045,261.511,0,258.756,0,255.991c0-3.543,0.074-7.068,0.22-10.575
	c0.241-5.827,5.043-10.425,10.875-10.425H35c2.761,0,5-1.812,5-4.048v-76.908c0-2.236-2.239-4.048-5-4.048h-1.264
	c-5.058,0-8.361-5.342-6.07-9.852c3.476-6.841,7.257-13.497,11.314-19.965c12.12-19.325,33.367-31.019,56.178-31.019h303.455
	C401.375,89.151,403.614,91.39,403.614,94.151z"/>
<path style="fill:#CDF5FF;" d="M403.614,94.151v25.834H39.094c6.818-10.852,14.42-21.159,22.741-30.835h336.779
	C401.375,89.151,403.614,91.39,403.614,94.151z"/>
<path style="fill:#4BB9E1;" d="M379.999,104.985c0,2.762-2.239,5-5,5s-5-2.239-5-5s2.239-5,5-5
	C377.76,99.985,379.999,102.224,379.999,104.985z M354.999,99.985c-2.761,0-5,2.239-5,5s2.239,5,5,5s5-2.239,5-5
	S357.76,99.985,354.999,99.985z M334.999,99.985c-2.761,0-5,2.239-5,5s2.239,5,5,5s5-2.239,5-5S337.76,99.985,334.999,99.985z"/>
<path style="fill:#A5E17D;" d="M374.999,354.994h-120c-2.761,0-5-2.239-5-5v-80.003c0-2.762,2.239-5,5-5h120c2.761,0,5,2.239,5,5
	v80.003C379.999,352.756,377.76,354.994,374.999,354.994z"/>
<path style="fill:#78BE5A;" d="M80,269.991v80.003c0,2.762-2.239,5-5,5H19.853C8.168,327.153,1.274,296.809,0.175,264.991H75
	C77.761,264.991,80,267.23,80,269.991z M224.999,264.991H105c-2.761,0-5,2.239-5,5v80.003c0,2.762,2.239,5,5,5h120
	c2.761,0,5-2.239,5-5v-80.003C229.999,267.23,227.761,264.991,224.999,264.991z M374.999,139.986H27.736
	C11.569,171.737,1.844,207.311,0.251,244.99h374.748c2.761,0,5-2.239,5-5v-95.003C379.999,142.225,377.76,139.986,374.999,139.986z"
	/>
<path style="fill:#D72D73;" d="M499.207,440.249l-28.284,28.285c-1.953,1.953-5.118,1.953-7.071,0l-57.158-57.16l-15.131,21.184
	c-2.334,3.267-7.372,2.59-8.76-1.178l-42.485-115.321c-1.475-4.003,2.418-7.895,6.42-6.42l115.317,42.487
	c3.768,1.388,4.445,6.427,1.178,8.761l-21.183,15.131l57.158,57.16C501.16,435.13,501.16,438.296,499.207,440.249z"/>
<path style="fill:#FF4682;" d="M463.232,360.886l-21.183,15.131l57.158,57.16c1.953,1.953,1.953,5.119,0,7.071l-13.904,13.905
	l-143.575-143.58c1.286-1.128,3.132-1.626,5.01-0.934l115.316,42.487C465.822,353.513,466.5,358.552,463.232,360.886z"/>
<g>
</g>
<g>
</g>
<g>
</g>
<g>
</g>
<g>
</g>
<g>
</g>
<g>
</g>
<g>
</g>
<g>
</g>
<g>
</g>
<g>
</g>
<g>
</g>
<g>
</g>
<g>
</g>
<g>
</g>
</svg>
