<?xml version="1.0" encoding="UTF-8" standalone="no"?>
<svg
   xmlns:dc="http://purl.org/dc/elements/1.1/"
   xmlns:cc="http://creativecommons.org/ns#"
   xmlns:rdf="http://www.w3.org/1999/02/22-rdf-syntax-ns#"
   xmlns:svg="http://www.w3.org/2000/svg"
   xmlns="http://www.w3.org/2000/svg"
   xmlns:xlink="http://www.w3.org/1999/xlink"
   xmlns:sodipodi="http://sodipodi.sourceforge.net/DTD/sodipodi-0.dtd"
   xmlns:inkscape="http://www.inkscape.org/namespaces/inkscape"
   sodipodi:docname="phone.svg"
   version="1.1"
   width="1280"
   height="730"
   viewBox="0 0 1280 730"
   id="svg294"
   inkscape:version="0.92.3 (2405546, 2018-03-11)">
  <sodipodi:namedview
     inkscape:current-layer="layer3"
     inkscape:window-maximized="0"
     inkscape:window-y="146"
     inkscape:window-x="2037"
     inkscape:cy="432.64165"
     inkscape:cx="58.397613"
     inkscape:zoom="0.90509668"
     inkscape:snap-center="false"
     showgrid="false"
     id="namedview25"
     inkscape:window-height="1123"
     inkscape:window-width="2280"
     inkscape:pageshadow="2"
     inkscape:pageopacity="0"
     guidetolerance="10"
     gridtolerance="10"
     objecttolerance="10"
     borderopacity="1"
     bordercolor="#666666"
     pagecolor="#ffffff"
     fit-margin-top="0"
     fit-margin-left="0"
     fit-margin-right="0"
     fit-margin-bottom="0"
     inkscape:pagecheckerboard="true" />
  <metadata
     id="metadata300">
    <rdf:rdf>
      <cc:work
         rdf:about="">
        <dc:format>image/svg+xml</dc:format>
        <dc:type
           rdf:resource="http://purl.org/dc/dcmitype/StillImage" />
      </cc:work>
    </rdf:rdf>
    <rdf:RDF>
      <cc:Work
         rdf:about="">
        <dc:format>image/svg+xml</dc:format>
        <dc:type
           rdf:resource="http://purl.org/dc/dcmitype/StillImage" />
        <dc:title></dc:title>
      </cc:Work>
    </rdf:RDF>
  </metadata>
  <defs
     id="defs298" />
  <g
     inkscape:groupmode="layer"
     id="layer3"
     inkscape:label="bg">
    <rect
       id="rect33"
       width="617.61359"
       height="573.41937"
       x="208.81747"
       y="59.353413"
       style="stroke-width:0.91126287;fill:#f2f2f2" />
  </g>
  <g
     transform="translate(12.442736,14.634941)"
     inkscape:label="Layer 1"
     id="layer1"
     inkscape:groupmode="layer"
     sodipodi:insensitive="true">
    <g
       id="logo-group"
       transform="matrix(0.18724906,0,0,0.18724906,495.51813,98.35359)">
      <g
         style="font-style:normal;font-weight:800;font-size:72px;line-height:1;font-family:'Montserrat ExtraBold Alt1';font-variant-ligatures:none;text-align:center;text-anchor:middle"
         aria-label="Kompound Solutions"
         id="title">
        <path
           style="font-style:normal;font-weight:800;font-size:72px;line-height:1;font-family:'Montserrat ExtraBold Alt1';font-variant-ligatures:none;text-align:center;text-anchor:middle;fill:#79a741"
           transform="matrix(1.1850971,0,0,1.1850971,129.88159,371.80464)"
           d="m 212.31361,-309.89668 c 0,0 -17.83543,-0.75192 -17.83543,-0.75192 0,0 -48.65521,85.90685 -48.65521,85.90685 0,0 52.6769,-60.68715 52.6769,-60.68715 0,0 13.81374,-24.46778 13.81374,-24.46778 m -32.13488,91.0276 c 0,0 77.34115,-89.12174 77.34115,-89.12174 0,0 -20.27965,-0.85497 -20.27965,-0.85497 0,0 -72.49689,83.20863 -72.49689,83.20863 0,0 -52.70673,60.54946 -52.70673,60.54946 0,0 -33.172268,58.56979 -33.172268,58.56979 0,0 17.665107,1.70558 17.665107,1.70558 0,0 29.383461,-52.04587 29.383461,-52.04587 0,0 19.90396,-22.8104 19.90396,-22.8104 0,0 -24.31833,77.26705 -24.31833,77.26705 0,0 21.2102,2.04786 21.2102,2.04786 0,0 37.46999,-118.51539 37.46999,-118.51539"
           id="path302"
           inkscape:connector-curvature="0" />
        <path
           style="font-style:normal;font-weight:800;font-size:72px;line-height:1;font-family:'Montserrat ExtraBold Alt1';font-variant-ligatures:none;text-align:center;text-anchor:middle;fill:#79a741"
           transform="matrix(1.1850971,0,0,1.1850971,129.88159,371.80464)"
           d="m 159.97904,-107.31969 c 0.23103,7.694765 3.1575,11.825993 8.60285,12.355749 5.46046,0.531228 12.50318,-2.6506 21.0277,-9.560099 8.43661,-6.92404 17.54655,-16.67794 27.29455,-29.56788 9.5669,-12.56926 19.05411,-27.34491 28.11226,-43.69209 9.02938,-16.29525 15.78553,-30.81977 20.27748,-43.57689 4.47536,-12.71002 6.39633,-22.75522 5.96769,-30.13966 -0.52229,-7.36325 -3.58565,-11.18428 -9.08514,-11.47735 -5.57893,-0.29731 -12.54954,2.96985 -20.82434,9.80195 -8.26843,6.82685 -17.17382,16.35328 -26.54222,28.60533 -9.54552,12.56301 -18.72451,26.71098 -27.54819,42.46822 -9.01814,16.10451 -16.01796,30.86185 -20.65591,43.67098 -4.82372,13.15788 -6.95012,23.436 -6.62673,31.11174 0,0 0,0 0,0 m 47.60602,-43.12156 c -5.95005,6.78219 -10.35178,9.89425 -13.46304,9.62956 -3.20043,-0.27228 -3.88741,-3.80723 -1.99379,-10.9026 1.79537,-7.08633 6.21846,-16.76674 13.07262,-29.04678 6.67119,-11.95226 12.77034,-21.13108 18.662,-27.84075 5.62974,-6.41634 10.16624,-9.82033 13.37724,-9.61222 3.12149,0.20231 3.68712,3.94757 2.11708,10.65715 -1.83515,7.01814 -5.95872,16.38569 -12.64083,28.40456 -6.86546,12.34863 -13.27777,21.92332 -19.13128,28.71108 0,0 0,0 0,0"
           id="path304"
           inkscape:connector-curvature="0" />
        <path
           style="font-style:normal;font-weight:800;font-size:72px;line-height:1;font-family:'Montserrat ExtraBold Alt1';font-variant-ligatures:none;text-align:center;text-anchor:middle;fill:#79a741"
           transform="matrix(1.1850971,0,0,1.1850971,129.88159,371.80464)"
           d="m 375.06627,-238.1369 c 2.62883,-12.42348 0.63289,-18.79126 -5.9635,-19.14279 -3.888,-0.20719 -8.79493,2.02327 -14.29277,6.08878 -5.75882,4.35984 -11.91593,10.56803 -18.47727,18.63043 2.77409,-8.5931 4.05366,-15.37937 3.41489,-19.76888 -0.63733,-4.37956 -2.82283,-6.66513 -6.55249,-6.86389 -3.23341,-0.17231 -7.15956,1.47164 -11.71256,4.62469 -4.54987,3.15087 -9.43726,7.82776 -15.02616,14.32317 0,0 9.42858,-17.09688 9.42858,-17.09688 0,0 -17.53451,-0.94636 -17.53451,-0.94636 0,0 -90.83961,164.191634 -90.83961,164.191634 0,0 18.2903,1.765942 18.2903,1.765942 0,0 45.50972,-82.536186 45.50972,-82.536186 6.7053,-12.1607 12.66803,-21.51146 17.75863,-27.45224 4.9916,-5.94535 8.89964,-8.82454 11.82605,-8.63261 5.27818,0.34616 1.84087,11.76908 -10.55907,34.32956 0,0 -47.24669,85.960707 -47.24669,85.960707 0,0 18.62028,1.7978 18.62028,1.7978 0,0 45.62699,-83.301007 45.62699,-83.301007 6.72202,-12.27237 12.7115,-21.70835 17.84162,-27.70247 5.02937,-5.99877 8.98156,-8.90299 11.86101,-8.71415 2.58502,0.16954 3.07058,3.05515 1.4521,8.66406 -1.62133,5.61877 -5.52288,14.2809 -11.91283,25.98504 0,0 -47.36626,86.75842 -47.36626,86.75842 0,0 18.95832,1.830439 18.95832,1.830439 0,0 52.64723,-96.773049 52.64723,-96.773049 13.42698,-24.68068 21.60773,-43.54266 24.248,-56.02016 0,0 0,0 0,0"
           id="path306"
           inkscape:connector-curvature="0" />
        <path
           style="font-style:normal;font-weight:800;font-size:72px;line-height:1;font-family:'Montserrat ExtraBold Alt1';font-variant-ligatures:none;text-align:center;text-anchor:middle;fill:#79a741"
           transform="matrix(1.1850971,0,0,1.1850971,129.88159,371.80464)"
           d="m 446.1186,-242.02522 c -0.31578,-7.35054 -2.97652,-11.30883 -8.0367,-11.57849 -7.41333,-0.39507 -16.34514,5.77381 -26.92418,18.50798 0,0 8.99007,-16.61938 8.99007,-16.61938 0,0 -18.4402,-0.99524 -18.4402,-0.99524 0,0 -124.96241,230.217261 -124.96241,230.217261 0,0 19.20709,2.163063 19.20709,2.163063 0,0 41.7614,-77.215024 41.7614,-77.215024 -2.74606,12.40979 -0.90563,18.947175 5.64764,19.584718 5.03153,0.489497 11.55639,-2.576934 19.63808,-9.532921 8.0864,-6.960038 17.06156,-17.190377 26.74029,-30.354907 9.66529,-13.14624 19.42704,-28.90962 28.93014,-46.62314 9.47044,-17.65264 16.47873,-33.13246 21.03639,-46.44727 4.54057,-13.26488 6.72923,-23.73128 6.41239,-31.10665 0,0 0,0 0,0 m -66.78573,105.72931 c -6.18023,7.07778 -10.82954,10.31959 -14.21556,10.03152 -3.48283,-0.2963 -4.37108,-3.99829 -2.60428,-11.41682 1.66042,-7.40864 6.06558,-17.52172 12.83259,-30.0329 6.75055,-12.48076 12.99279,-22.0617 19.11023,-29.06081 6.01305,-7.00366 10.79519,-10.55007 14.28725,-10.32375 3.39495,0.22004 4.16209,4.13762 2.56516,11.46157 -1.70417,7.33505 -5.79572,17.12159 -12.55579,29.67499 -6.77664,12.58416 -13.34444,22.58235 -19.4196,29.6662 0,0 0,0 0,0"
           id="path308"
           inkscape:connector-curvature="0" />
        <path
           style="font-style:normal;font-weight:800;font-size:72px;line-height:1;font-family:'Montserrat ExtraBold Alt1';font-variant-ligatures:none;text-align:center;text-anchor:middle;fill:#79a741"
           transform="matrix(1.1850971,0,0,1.1850971,129.88159,371.80464)"
           d="m 398.27015,-84.836829 c 0.70064,8.205952 4.21554,12.628477 10.34544,13.22483 6.14796,0.598112 13.85547,-2.755665 23.00868,-10.077855 9.05431,-7.338563 18.69926,-17.69188 28.8766,-31.385626 9.99222,-13.35173 19.76508,-29.05427 28.96323,-46.43087 9.16715,-17.31803 15.88788,-32.7566 20.1727,-46.31941 4.26805,-13.50974 5.82882,-24.1905 4.91253,-32.04689 -1.0198,-7.83247 -4.67819,-11.90533 -10.85781,-12.23465 -6.26786,-0.33402 -13.88442,3.11647 -22.75214,10.35197 -8.86049,7.2296 -18.27644,17.327 -28.05241,30.32146 -9.95694,13.32547 -19.41263,28.3399 -28.37889,45.07068 -9.16558,17.10269 -16.15117,32.78373 -20.60625,46.40459 -4.64401,13.99457 -6.43448,24.937389 -5.63168,33.121771 0,0 0,0 0,0 m 50.83381,-45.712661 c -6.27309,7.19793 -11.02434,10.49232 -14.52529,10.19448 -3.60095,-0.30635 -4.57501,-4.07654 -2.86464,-11.62673 1.60062,-7.53995 5.9936,-17.82913 12.95779,-30.87378 6.77734,-12.69465 13.07447,-22.43834 19.28266,-29.55464 5.93181,-6.80509 10.81488,-10.40924 14.42442,-10.1753 3.50927,0.22744 4.3624,4.21527 2.99597,11.35012 -1.64567,7.46324 -5.71879,17.41934 -12.50498,30.18914 -6.97339,13.12207 -13.60147,23.29252 -19.76593,30.49671 0,0 0,0 0,0"
           id="path310"
           inkscape:connector-curvature="0" />
        <path
           style="font-style:normal;font-weight:800;font-size:72px;line-height:1;font-family:'Montserrat ExtraBold Alt1';font-variant-ligatures:none;text-align:center;text-anchor:middle;fill:#79a741"
           transform="matrix(1.1850971,0,0,1.1850971,129.88159,371.80464)"
           d="m 607.27062,-241.61591 c 0,0 -21.11832,-1.13978 -21.11832,-1.13978 0,0 -44.10458,84.14024 -44.10458,84.14024 -7.50706,14.32156 -14.08288,24.67403 -19.77402,31.36437 -5.69316,6.69272 -10.04837,9.74219 -13.34198,9.46488 -3.28854,-0.27688 -4.15275,-3.41593 -2.53666,-9.74374 1.33255,-5.99903 5.69554,-15.80354 12.68788,-29.0891 0,0 45.93503,-87.27729 45.93503,-87.27729 0,0 -20.71298,-1.1179 -20.71298,-1.1179 0,0 -51.16964,96.83859 -51.16964,96.83859 -14.18687,26.84865 -22.6699,47.18821 -25.18622,60.981198 -2.70132,14.186744 -0.0765,21.347328 7.55822,22.090082 3.38991,0.329791 7.54277,-1.001657 12.69453,-4.667585 4.98208,-3.338258 10.56585,-8.701045 16.57371,-15.754362 0,0 -10.04182,19.160893 -10.04182,19.160893 0,0 20.03745,1.93463 20.03745,1.93463 0,0 92.4994,-177.185126 92.4994,-177.185126"
           id="path312"
           inkscape:connector-curvature="0" />
        <path
           style="font-style:normal;font-weight:800;font-size:72px;line-height:1;font-family:'Montserrat ExtraBold Alt1';font-variant-ligatures:none;text-align:center;text-anchor:middle;fill:#79a741"
           transform="matrix(1.1850971,0,0,1.1850971,129.88159,371.80464)"
           d="m 670.93243,-221.02413 c 2.01508,-13.35552 -0.83175,-20.21504 -8.51339,-20.6244 -4.00223,-0.21329 -8.66298,1.54001 -13.98476,5.25756 -5.43157,3.70851 -10.96474,8.74532 -17.0543,15.75731 0,0 9.92902,-19.14517 9.92902,-19.14517 0,0 -20.43648,-1.10297 -20.43648,-1.10297 0,0 -92.55513,177.758909 -92.55513,177.758909 0,0 21.37269,2.063548 21.37269,2.063548 0,0 45.18365,-87.140577 45.18365,-87.140577 7.1727,-13.83316 13.6449,-24.27659 19.65605,-31.34021 5.83915,-6.73323 10.66318,-10.14352 14.42232,-9.89698 6.73694,0.44183 3.88176,12.84849 -8.74056,37.29853 0,0 -48.13543,93.240625 -48.13543,93.240625 0,0 21.81182,2.105947 21.81182,2.105947 0,0 53.47796,-104.033922 53.47796,-104.033922 13.62721,-26.50983 21.54196,-46.77975 23.56654,-60.1982 0,0 0,0 0,0"
           id="path314"
           inkscape:connector-curvature="0" />
        <path
           style="font-style:normal;font-weight:800;font-size:72px;line-height:1;font-family:'Montserrat ExtraBold Alt1';font-variant-ligatures:none;text-align:center;text-anchor:middle;fill:#79a741"
           transform="matrix(1.1850971,0,0,1.1850971,129.88159,371.80464)"
           d="m 803.01491,-299.13456 c 0,0 -22.73101,-0.88793 -22.73101,-0.88793 0,0 -41.42976,81.55625 -41.42976,81.55625 1.97117,-12.53448 -0.75419,-19.14917 -8.31907,-19.55231 -5.8924,-0.31402 -13.20299,3.35907 -21.60243,10.35581 -8.67956,7.31524 -17.99531,17.99063 -27.91015,31.70791 -9.9293,13.73729 -19.55705,29.92847 -29.13088,48.5934 -9.60868,18.73289 -16.94007,35.62264 -21.40467,50.00863 -4.65601,14.782443 -6.65965,26.314739 -5.87805,34.58507 0.66747,8.289645 4.01996,12.559963 9.89281,13.13131 8.24843,0.802457 18.18152,-5.802484 29.76867,-19.808181 0,0 -9.41562,18.538984 -9.41562,18.538984 0,0 21.57644,2.083221 21.57644,2.083221 0,0 126.58372,-250.312164 126.58372,-250.312164 m -122.10363,187.67698 c -6.57895,7.59729 -11.67448,11.06594 -15.45308,10.74448 -4.00771,-0.34095 -5.28378,-4.33921 -3.78134,-12.32865 1.38112,-7.97797 5.71332,-18.85387 12.75057,-32.63465 6.8475,-13.40919 13.31648,-23.696 19.8242,-31.20264 6.21761,-7.17823 11.44096,-10.97387 15.45471,-10.71373 3.90261,0.25293 5.0587,4.47527 3.80098,12.01232 -1.4317,7.89239 -5.4242,18.41538 -12.27786,31.90807 -7.04371,13.86682 -13.86013,24.61053 -20.31818,32.2148 0,0 0,0 0,0"
           id="path316"
           inkscape:connector-curvature="0" />
        <path
           style="font-style:normal;font-weight:800;font-size:72px;line-height:1;font-family:'Montserrat ExtraBold Alt1';font-variant-ligatures:none;text-align:center;text-anchor:middle;fill:#79a741"
           transform="matrix(1.1850971,0,0,1.1850971,-358.67209,458.31341)"
           d="m 364.73135,137.91383 c 2.28768,5.37742 6.0255,8.55822 11.21841,9.5306 6.03097,1.12931 13.05783,-1.11916 20.98075,-6.76996 7.83934,-5.67384 16.10708,-14.11663 24.43189,-24.6718 8.22466,-10.56198 16.13382,-22.571466 23.62604,-36.026128 8.53928,-15.335008 14.24902,-27.953402 16.78733,-37.230784 2.53084,-9.250032 3.44931,-16.31703 2.49353,-20.91068 -0.9534,-4.582276 -2.91154,-8.961619 -5.69353,-13.4501739 -2.66383,-3.7806241 -4.21026,-7.0513417 -4.38628,-10.4554463 -0.44227,-3.0997377 1.089,-7.5966335 4.40729,-13.5155658 3.14019,-5.601258 6.57988,-10.150914 10.32201,-13.653856 3.7427,-3.50348 7.3626,-5.019619 11.04854,-4.522487 5.72724,0.77245 8.61192,7.20509 8.54826,19.332588 0,0 31.29454,-45.177305 31.29454,-45.177305 0.28948,-6.620918 -0.84622,-11.741737 -3.21503,-15.345974 -2.45525,-3.60582 -5.59385,-5.967428 -9.85175,-6.485103 -6.27713,-0.763172 -13.2467,1.672851 -20.91816,7.301901 -7.66364,5.623316 -15.69897,13.830202 -23.68042,24.028437 -8.07962,10.195262 -15.85511,22.10709 -23.16916,35.110755 -8.55604,15.21177867 -14.29571,27.512886 -16.84953,36.605498 -2.82805,9.418287 -3.79973,16.424486 -2.81612,21.020681 0.89488,4.593308 2.79096,9.013792 5.69357,13.263211 2.45301,4.188997 3.80337,7.86409 4.05238,11.367002 0.24941,3.50877 -1.22551,8.128706 -4.78369,14.497253 -6.77235,12.121376 -13.65694,17.589159 -20.62275,16.385882 -3.65587,-0.631515 -6.32604,-3.185836 -7.74334,-7.956478 -1.68204,-4.456038 -1.92731,-10.389386 -1.00965,-17.493361 0,0 -31.86818,45.220694 -31.86818,45.220694 -1.32118,8.17462 -0.66712,14.62495 1.70305,20.0006 0,0 0,0 0,0"
           id="path318"
           inkscape:connector-curvature="0" />
        <path
           style="font-style:normal;font-weight:800;font-size:72px;line-height:1;font-family:'Montserrat ExtraBold Alt1';font-variant-ligatures:none;text-align:center;text-anchor:middle;fill:#79a741"
           transform="matrix(1.1850971,0,0,1.1850971,-358.67209,458.31341)"
           d="m 430.14589,142.85439 c -0.026,8.61098 2.77896,13.45492 8.23907,14.47473 5.47588,1.02276 12.66855,-1.9778 21.47717,-9.02615 8.72093,-7.07174 18.21369,-17.25159 28.45234,-30.8836 10.04523,-13.2874 20.08225,-29.043548 29.7379,-46.585723 9.62375,-17.484201 16.89989,-33.166703 21.83799,-47.050639 4.91914,-13.8306385 7.17955,-24.8846529 6.98809,-33.1514336 -0.28638,-8.2491904 -3.24528,-12.7442014 -8.77019,-13.4937054 -5.60411,-0.760249 -12.72424,2.345178 -21.27267,9.323297 -8.54159,6.9725402 -17.81245,16.9049358 -27.63905,29.840254 -10.0155,13.26895 -19.71553,28.334476 -29.11268,45.223876 -9.60543,17.26375 -17.13744,33.183837 -22.23012,47.116324 -5.29195,14.30932 -7.77535,25.61704 -7.70785,34.21277 0,0 0,0 0,0 m 49.3306,-44.417497 c -6.21211,7.106447 -10.74443,10.236677 -13.86598,9.698037 -3.21081,-0.55404 -3.78426,-4.55359 -1.6432,-12.325264 2.04172,-7.768496 6.8127,-18.22621 14.1149,-31.394268 7.10661,-12.815358 13.54555,-22.580545 19.69404,-29.607553 5.87526,-6.720047 10.55152,-10.16528 13.77559,-9.684851 3.1344,0.467067 3.58076,4.687975 1.78066,12.050376 -2.07721,7.686761 -6.53492,17.817913 -13.65524,30.709675 -7.31639,13.246749 -14.08572,23.433742 -20.20077,30.553848 0,0 0,0 0,0"
           id="path320"
           inkscape:connector-curvature="0" />
        <path
           style="font-style:normal;font-weight:800;font-size:72px;line-height:1;font-family:'Montserrat ExtraBold Alt1';font-variant-ligatures:none;text-align:center;text-anchor:middle;fill:#79a741"
           transform="matrix(1.1850971,0,0,1.1850971,-358.67209,458.31341)"
           d="m 609.3019,-78.41289 c 0,0 -131.76772,239.77265 -131.76772,239.77265 0,0 18.35905,3.41327 18.35905,3.41327 0,0 131.97082,-240.973395 131.97082,-240.973395 0,0 -18.56215,-2.212525 -18.56215,-2.212525"
           id="path322"
           inkscape:connector-curvature="0" />
        <path
           style="font-style:normal;font-weight:800;font-size:72px;line-height:1;font-family:'Montserrat ExtraBold Alt1';font-variant-ligatures:none;text-align:center;text-anchor:middle;fill:#79a741"
           transform="matrix(1.1850971,0,0,1.1850971,-358.67209,458.31341)"
           d="m 661.85399,-2.9146161 c 0,0 -19.16254,-2.6146631 -19.16254,-2.6146631 0,0 -46.48344,85.6740792 -46.48344,85.6740792 -7.91107,14.580983 -14.67708,25.04406 -20.36354,31.7097 -5.68845,6.66798 -9.88574,9.58883 -12.86742,9.07737 -2.97714,-0.51067 -3.53105,-3.87372 -1.58628,-10.42942 1.66183,-6.22854 6.36994,-16.262695 13.73464,-29.787756 0,0 48.38679,-88.8609166 48.38679,-88.8609166 0,0 -18.79901,-2.5650594 -18.79901,-2.5650594 0,0 -53.87244,98.586912 -53.87244,98.586912 -14.93412,27.32953 -24.18253,48.18306 -27.5033,62.5393 -3.51855,14.75772 -1.65844,22.47138 5.24641,23.76103 3.06573,0.5726 6.95059,-0.55302 11.91977,-4.06993 4.79007,-3.1832 10.27936,-8.45779 16.28116,-15.48399 0,0 -10.58067,19.50465 -10.58067,19.50465 0,0 18.11973,3.36877 18.11973,3.36877 0,0 97.53014,-180.4100761 97.53014,-180.4100761"
           id="path324"
           inkscape:connector-curvature="0" />
        <path
           style="font-style:normal;font-weight:800;font-size:72px;line-height:1;font-family:'Montserrat ExtraBold Alt1';font-variant-ligatures:none;text-align:center;text-anchor:middle;fill:#79a741"
           transform="matrix(1.1850971,0,0,1.1850971,-358.67209,458.31341)"
           d="m 618.83135,179.33227 c 0,0 19.44964,-46.22468 19.44964,-46.22468 -3.93614,3.77225 -6.80314,5.13169 -9.06652,4.74029 -1.84994,-0.3199 -2.37793,-2.26294 -1.40417,-6.16476 0.97257,-3.89708 3.18264,-9.05395 6.80916,-15.80573 0,0 32.43269,-60.382356 32.43269,-60.382356 0,0 12.79469,1.929504 12.79469,1.929504 0,0 25.34985,-47.311 25.34985,-47.311 0,0 -12.81768,-1.7714073 -12.81768,-1.7714073 0,0 24.92581,-46.4062417 24.92581,-46.4062417 0,0 -19.51763,-2.458211 -19.51763,-2.458211 0,0 -24.89179,46.1718122 -24.89179,46.1718122 0,0 -8.04593,-1.1119498 -8.04593,-1.1119498 0,0 -25.27624,46.8135306 -25.27624,46.8135306 0,0 8.03096,1.21111 8.03096,1.21111 0,0 -32.74734,60.743089 -32.74734,60.743089 -12.51388,23.21201 -20.05264,41.1167 -22.4003,53.33769 -2.54065,12.61208 -0.15333,19.43414 7.10832,20.79043 2.66589,0.49792 5.4974,0.27287 8.96411,-1.34258 3.28585,-1.27397 6.8161,-3.63487 10.30237,-6.75854 0,0 0,0 0,0"
           id="path326"
           inkscape:connector-curvature="0" />
        <path
           style="font-style:normal;font-weight:800;font-size:72px;line-height:1;font-family:'Montserrat ExtraBold Alt1';font-variant-ligatures:none;text-align:center;text-anchor:middle;fill:#79a741"
           transform="matrix(1.1850971,0,0,1.1850971,-358.67209,458.31341)"
           d="m 720.32239,5.0631964 c 0,0 -97.95699,183.2232036 -97.95699,183.2232036 0,0 19.77776,3.67702 19.77776,3.67702 0,0 98.09576,-184.1826818 98.09576,-184.1826818 0,0 -19.91653,-2.7175418 -19.91653,-2.7175418 m 16.91436,-29.3403934 c -1.34055,6.900398 -0.003,10.265589 3.66473,10.746907 3.56962,0.468395 8.10795,-2.136065 13.96402,-8.477978 5.74974,-6.354445 11.32417,-14.49695 16.61099,-24.427585 4.92533,-9.251618 7.97765,-17.305547 8.91645,-23.491616 0.83127,-6.184536 -0.37009,-9.803793 -3.94784,-10.211482 -3.67651,-0.418942 -8.36125,2.518516 -13.88486,8.485167 -5.80405,6.282783 -11.05798,14.02891 -15.97657,23.225017 -5.10338,9.541612 -8.2903,17.583901 -9.34692,24.15157 0,0 0,0 0,0"
           id="path328"
           inkscape:connector-curvature="0" />
        <path
           style="font-style:normal;font-weight:800;font-size:72px;line-height:1;font-family:'Montserrat ExtraBold Alt1';font-variant-ligatures:none;text-align:center;text-anchor:middle;fill:#79a741"
           transform="matrix(1.1850971,0,0,1.1850971,-358.67209,458.31341)"
           d="m 672.12101,187.2214 c 0.45504,9.25158 3.87475,14.48732 10.05936,15.64245 6.20363,1.15868 14.1081,-1.98908 23.59838,-9.47118 9.39101,-7.50858 19.47222,-18.34987 30.19384,-32.89269 10.52316,-14.1733 20.89443,-30.99675 30.73287,-49.73862 9.80384,-18.675954 17.0724,-35.436215 21.81692,-50.284288 4.72514,-14.78744 6.62381,-26.61758 5.92997,-35.478447 -0.79923,-8.8407 -4.38153,-13.679734 -10.6271,-14.527003 -6.33395,-0.8592589 -14.14546,2.408927 -23.33618,9.812379 -9.1829,7.397161 -19.0142,17.958249 -29.29772,31.731938 -10.47722,14.130651 -20.49965,30.191145 -30.08065,48.212481 -9.79536,18.42454 -17.34341,35.43149 -22.26954,50.33344 -5.12962,15.30812 -7.27913,27.42558 -6.72015,36.65954 0,0 0,0 0,0 m 52.84413,-47.19916 c -6.569,7.56889 -11.47853,10.88477 -15.01269,10.27494 -3.63483,-0.62721 -4.5051,-4.92718 -2.54328,-13.24889 1.85025,-8.31798 6.60967,-19.49392 14.0542,-33.55172 7.24401,-13.679135 13.91184,-24.091844 20.40973,-31.570707 6.20869,-7.152068 11.25937,-10.804129 14.90557,-10.260797 3.54516,0.528276 4.28871,5.057708 2.69071,12.936534 -1.89075,8.225436 -6.31437,19.052605 -13.5701,32.81879 -7.4567,14.14748 -14.475,25.01749 -20.93414,32.60185 0,0 0,0 0,0"
           id="path330"
           inkscape:connector-curvature="0" />
        <path
           style="font-style:normal;font-weight:800;font-size:72px;line-height:1;font-family:'Montserrat ExtraBold Alt1';font-variant-ligatures:none;text-align:center;text-anchor:middle;fill:#79a741"
           transform="matrix(1.1850971,0,0,1.1850971,-358.67209,458.31341)"
           d="m 873.15062,44.852577 c 2.57153,-14.511095 0.09,-22.250951 -7.41542,-23.269123 -3.91012,-0.530444 -8.55313,1.048583 -13.93141,4.734265 -5.4853,3.667556 -11.12963,8.785294 -17.40751,16.02955 0,0 10.58228,-20.275166 10.58228,-20.275166 0,0 -19.95913,-2.723354 -19.95913,-2.723354 0,0 -98.64872,188.274041 -98.64872,188.274041 0,0 20.82928,3.87252 20.82928,3.87252 0,0 48.1873,-92.34262 48.1873,-92.34262 7.64759,-14.65529 14.45594,-25.640014 20.66028,-32.947937 6.02099,-6.957939 10.89836,-10.343219 14.5685,-9.793034 6.57786,0.986077 3.22378,14.396082 -10.23877,40.305561 0,0 -51.35474,98.83523 -51.35474,98.83523 0,0 21.26843,3.95417 21.26843,3.95417 0,0 57.07501,-110.30568 57.07501,-110.30568 14.53904,-28.098797 23.20067,-49.767204 25.78462,-64.348423 0,0 0,0 0,0"
           id="path332"
           inkscape:connector-curvature="0" />
        <path
           style="font-style:normal;font-weight:800;font-size:72px;line-height:1;font-family:'Montserrat ExtraBold Alt1';font-variant-ligatures:none;text-align:center;text-anchor:middle;fill:#79a741"
           transform="matrix(1.1850971,0,0,1.1850971,-358.67209,458.31341)"
           d="m 811.90999,221.15016 c 3.14324,4.54659 7.22872,7.29399 12.48718,8.27614 6.41952,1.199 13.35917,-0.29762 20.95379,-5.26772 7.41681,-4.61154 14.91569,-11.60218 22.37046,-20.98419 7.33351,-9.39612 14.35477,-20.41691 20.63906,-32.72409 7.55891,-14.80338 12.16346,-26.53789 13.82593,-35.21632 1.6579,-8.65458 1.68348,-14.83852 -0.0331,-18.58185 -2.0111,-3.39681 -4.826,-6.91183 -8.62234,-10.18741 -3.23056,-2.41507 -5.1914,-4.6304 -6.0022,-6.666065 -0.92449,-2.05087 -0.0894,-5.356424 2.2736,-9.950518 1.9979,-3.884202 4.43391,-6.94035 7.30974,-9.171063 2.87666,-2.231361 6.13005,-3.269223 9.58243,-2.759706 6.45947,0.953313 9.93374,6.803938 10.77369,16.874316 0,0 30.01021,-44.768642 30.01021,-44.768642 -0.50445,-5.36313 -2.18184,-10.121308 -5.1549,-13.540492 -3.08116,-3.426098 -6.87309,-5.44159 -11.37477,-6.052284 -6.44744,-0.874654 -13.28091,1.186291 -20.73843,6.145669 -7.44941,4.953985 -14.65257,11.809192 -21.79946,20.923687 -7.26561,9.104438 -14.01214,19.803011 -20.17898,31.74427 -7.6371,14.788208 -12.40482,26.634138 -14.1083,35.171108 -1.89123,8.91526 -1.86533,15.08429 0.0848,18.49394 1.77076,3.77372 4.71367,6.97465 8.83416,9.60184 2.98268,2.44217 4.82137,4.6967 5.74196,6.80001 0.9217,2.10586 0.36934,5.13676 -1.84352,9.4528 -2.21465,4.31952 -4.86789,7.78266 -7.47315,9.68568 -2.60446,1.90243 -5.68731,2.54363 -9.12996,1.94478 -3.89486,-0.67752 -6.92933,-2.77019 -9.14863,-6.67085 -2.21385,-3.8911 -3.41493,-8.76686 -3.19586,-14.94201 0,0 -30.47719,45.39624 -30.47719,45.39624 -0.21539,6.64779 1.26019,12.4401 4.39377,16.97273 0,0 0,0 0,0"
           id="path334"
           inkscape:connector-curvature="0" />
      </g>
      <g
         style="font-style:normal;font-weight:500;font-size:32px;line-height:1;font-family:Montserrat;font-variant-ligatures:none;text-align:center;text-anchor:middle"
         id="tagline" />
    </g>
  </g>
  <g
     sodipodi:insensitive="true"
     style="display:inline"
     transform="translate(12.442736,14.634941)"
     inkscape:label="Layer 2"
     id="layer2"
     inkscape:groupmode="layer">
    <image
       sodipodi:absref="/home/david/Entwicklung/kompound-solutions/src/img/phone.png"
       xlink:href="img/phone.png"
       y="-14.634941"
       x="-12.442736"
       id="image3827"
       preserveAspectRatio="none"
       height="730"
       width="1280" />
  </g>
</svg>
